<?xml version="1.0" encoding="utf-8" standalone="no"?>
<!DOCTYPE svg PUBLIC "-//W3C//DTD SVG 1.1//EN"
  "http://www.w3.org/Graphics/SVG/1.1/DTD/svg11.dtd">
<svg xmlns:xlink="http://www.w3.org/1999/xlink" width="595.354pt" height="477.460031pt" viewBox="0 0 595.354 477.460031" xmlns="http://www.w3.org/2000/svg" version="1.1">
 <metadata>
  <rdf:RDF xmlns:dc="http://purl.org/dc/elements/1.1/" xmlns:cc="http://creativecommons.org/ns#" xmlns:rdf="http://www.w3.org/1999/02/22-rdf-syntax-ns#">
   <cc:Work>
    <dc:type rdf:resource="http://purl.org/dc/dcmitype/StillImage"/>
    <dc:date>2024-07-04T09:46:41.842995</dc:date>
    <dc:format>image/svg+xml</dc:format>
    <dc:creator>
     <cc:Agent>
      <dc:title>Matplotlib v3.8.1, https://matplotlib.org/</dc:title>
     </cc:Agent>
    </dc:creator>
   </cc:Work>
  </rdf:RDF>
 </metadata>
 <defs>
  <style type="text/css">*{stroke-linejoin: round; stroke-linecap: butt}</style>
 </defs>
 <g id="figure_1">
  <g id="patch_1">
   <path d="M 0 477.460031 
L 595.354 477.460031 
L 595.354 0 
L 0 0 
z
" style="fill: #ffffff"/>
  </g>
  <g id="axes_1">
   <g id="patch_2">
    <path d="M 60.014 376.879837 
L 588.154 376.879837 
L 588.154 11.759062 
L 60.014 11.759062 
z
" style="fill: #ffffff"/>
   </g>
   <g id="matplotlib.axis_1">
    <g id="xtick_1">
     <g id="line2d_1">
      <path d="M 60.014 376.879837 
L 60.014 11.759062 
" clip-path="url(#pad8e8b8911)" style="fill: none; stroke-dasharray: 0.8,1.32; stroke-dashoffset: 0; stroke: #b0b0b0; stroke-width: 0.8"/>
     </g>
     <g id="line2d_2">
      <defs>
       <path id="me6367ec658" d="M 0 0 
L 0 3.5 
" style="stroke: #000000; stroke-width: 0.8"/>
      </defs>
      <g>
       <use xlink:href="#me6367ec658" x="60.014" y="376.879837" style="stroke: #000000; stroke-width: 0.8"/>
      </g>
     </g>
     <g id="text_1">
      <!-- 2006 -->
      <g transform="translate(36.654286 411.922366) rotate(-45) scale(0.12 -0.12)">
       <defs>
        <path id="DejaVuSans-32" d="M 1228 531 
L 3431 531 
L 3431 0 
L 469 0 
L 469 531 
Q 828 903 1448 1529 
Q 2069 2156 2228 2338 
Q 2531 2678 2651 2914 
Q 2772 3150 2772 3378 
Q 2772 3750 2511 3984 
Q 2250 4219 1831 4219 
Q 1534 4219 1204 4116 
Q 875 4013 500 3803 
L 500 4441 
Q 881 4594 1212 4672 
Q 1544 4750 1819 4750 
Q 2544 4750 2975 4387 
Q 3406 4025 3406 3419 
Q 3406 3131 3298 2873 
Q 3191 2616 2906 2266 
Q 2828 2175 2409 1742 
Q 1991 1309 1228 531 
z
" transform="scale(0.015625)"/>
        <path id="DejaVuSans-30" d="M 2034 4250 
Q 1547 4250 1301 3770 
Q 1056 3291 1056 2328 
Q 1056 1369 1301 889 
Q 1547 409 2034 409 
Q 2525 409 2770 889 
Q 3016 1369 3016 2328 
Q 3016 3291 2770 3770 
Q 2525 4250 2034 4250 
z
M 2034 4750 
Q 2819 4750 3233 4129 
Q 3647 3509 3647 2328 
Q 3647 1150 3233 529 
Q 2819 -91 2034 -91 
Q 1250 -91 836 529 
Q 422 1150 422 2328 
Q 422 3509 836 4129 
Q 1250 4750 2034 4750 
z
" transform="scale(0.015625)"/>
        <path id="DejaVuSans-36" d="M 2113 2584 
Q 1688 2584 1439 2293 
Q 1191 2003 1191 1497 
Q 1191 994 1439 701 
Q 1688 409 2113 409 
Q 2538 409 2786 701 
Q 3034 994 3034 1497 
Q 3034 2003 2786 2293 
Q 2538 2584 2113 2584 
z
M 3366 4563 
L 3366 3988 
Q 3128 4100 2886 4159 
Q 2644 4219 2406 4219 
Q 1781 4219 1451 3797 
Q 1122 3375 1075 2522 
Q 1259 2794 1537 2939 
Q 1816 3084 2150 3084 
Q 2853 3084 3261 2657 
Q 3669 2231 3669 1497 
Q 3669 778 3244 343 
Q 2819 -91 2113 -91 
Q 1303 -91 875 529 
Q 447 1150 447 2328 
Q 447 3434 972 4092 
Q 1497 4750 2381 4750 
Q 2619 4750 2861 4703 
Q 3103 4656 3366 4563 
z
" transform="scale(0.015625)"/>
       </defs>
       <use xlink:href="#DejaVuSans-32"/>
       <use xlink:href="#DejaVuSans-30" x="63.623047"/>
       <use xlink:href="#DejaVuSans-30" x="127.246094"/>
       <use xlink:href="#DejaVuSans-36" x="190.869141"/>
      </g>
     </g>
    </g>
    <g id="xtick_2">
     <g id="line2d_3">
      <path d="M 118.696222 376.879837 
L 118.696222 11.759062 
" clip-path="url(#pad8e8b8911)" style="fill: none; stroke-dasharray: 0.8,1.32; stroke-dashoffset: 0; stroke: #b0b0b0; stroke-width: 0.8"/>
     </g>
     <g id="line2d_4">
      <g>
       <use xlink:href="#me6367ec658" x="118.696222" y="376.879837" style="stroke: #000000; stroke-width: 0.8"/>
      </g>
     </g>
     <g id="text_2">
      <!-- 2008 -->
      <g transform="translate(95.336508 411.922366) rotate(-45) scale(0.12 -0.12)">
       <defs>
        <path id="DejaVuSans-38" d="M 2034 2216 
Q 1584 2216 1326 1975 
Q 1069 1734 1069 1313 
Q 1069 891 1326 650 
Q 1584 409 2034 409 
Q 2484 409 2743 651 
Q 3003 894 3003 1313 
Q 3003 1734 2745 1975 
Q 2488 2216 2034 2216 
z
M 1403 2484 
Q 997 2584 770 2862 
Q 544 3141 544 3541 
Q 544 4100 942 4425 
Q 1341 4750 2034 4750 
Q 2731 4750 3128 4425 
Q 3525 4100 3525 3541 
Q 3525 3141 3298 2862 
Q 3072 2584 2669 2484 
Q 3125 2378 3379 2068 
Q 3634 1759 3634 1313 
Q 3634 634 3220 271 
Q 2806 -91 2034 -91 
Q 1263 -91 848 271 
Q 434 634 434 1313 
Q 434 1759 690 2068 
Q 947 2378 1403 2484 
z
M 1172 3481 
Q 1172 3119 1398 2916 
Q 1625 2713 2034 2713 
Q 2441 2713 2670 2916 
Q 2900 3119 2900 3481 
Q 2900 3844 2670 4047 
Q 2441 4250 2034 4250 
Q 1625 4250 1398 4047 
Q 1172 3844 1172 3481 
z
" transform="scale(0.015625)"/>
       </defs>
       <use xlink:href="#DejaVuSans-32"/>
       <use xlink:href="#DejaVuSans-30" x="63.623047"/>
       <use xlink:href="#DejaVuSans-30" x="127.246094"/>
       <use xlink:href="#DejaVuSans-38" x="190.869141"/>
      </g>
     </g>
    </g>
    <g id="xtick_3">
     <g id="line2d_5">
      <path d="M 177.378444 376.879837 
L 177.378444 11.759062 
" clip-path="url(#pad8e8b8911)" style="fill: none; stroke-dasharray: 0.8,1.32; stroke-dashoffset: 0; stroke: #b0b0b0; stroke-width: 0.8"/>
     </g>
     <g id="line2d_6">
      <g>
       <use xlink:href="#me6367ec658" x="177.378444" y="376.879837" style="stroke: #000000; stroke-width: 0.8"/>
      </g>
     </g>
     <g id="text_3">
      <!-- 2010 -->
      <g transform="translate(154.01873 411.922366) rotate(-45) scale(0.12 -0.12)">
       <defs>
        <path id="DejaVuSans-31" d="M 794 531 
L 1825 531 
L 1825 4091 
L 703 3866 
L 703 4441 
L 1819 4666 
L 2450 4666 
L 2450 531 
L 3481 531 
L 3481 0 
L 794 0 
L 794 531 
z
" transform="scale(0.015625)"/>
       </defs>
       <use xlink:href="#DejaVuSans-32"/>
       <use xlink:href="#DejaVuSans-30" x="63.623047"/>
       <use xlink:href="#DejaVuSans-31" x="127.246094"/>
       <use xlink:href="#DejaVuSans-30" x="190.869141"/>
      </g>
     </g>
    </g>
    <g id="xtick_4">
     <g id="line2d_7">
      <path d="M 236.060667 376.879837 
L 236.060667 11.759062 
" clip-path="url(#pad8e8b8911)" style="fill: none; stroke-dasharray: 0.8,1.32; stroke-dashoffset: 0; stroke: #b0b0b0; stroke-width: 0.8"/>
     </g>
     <g id="line2d_8">
      <g>
       <use xlink:href="#me6367ec658" x="236.060667" y="376.879837" style="stroke: #000000; stroke-width: 0.8"/>
      </g>
     </g>
     <g id="text_4">
      <!-- 2012 -->
      <g transform="translate(212.700952 411.922366) rotate(-45) scale(0.12 -0.12)">
       <use xlink:href="#DejaVuSans-32"/>
       <use xlink:href="#DejaVuSans-30" x="63.623047"/>
       <use xlink:href="#DejaVuSans-31" x="127.246094"/>
       <use xlink:href="#DejaVuSans-32" x="190.869141"/>
      </g>
     </g>
    </g>
    <g id="xtick_5">
     <g id="line2d_9">
      <path d="M 294.742889 376.879837 
L 294.742889 11.759062 
" clip-path="url(#pad8e8b8911)" style="fill: none; stroke-dasharray: 0.8,1.32; stroke-dashoffset: 0; stroke: #b0b0b0; stroke-width: 0.8"/>
     </g>
     <g id="line2d_10">
      <g>
       <use xlink:href="#me6367ec658" x="294.742889" y="376.879837" style="stroke: #000000; stroke-width: 0.8"/>
      </g>
     </g>
     <g id="text_5">
      <!-- 2014 -->
      <g transform="translate(271.383174 411.922366) rotate(-45) scale(0.12 -0.12)">
       <defs>
        <path id="DejaVuSans-34" d="M 2419 4116 
L 825 1625 
L 2419 1625 
L 2419 4116 
z
M 2253 4666 
L 3047 4666 
L 3047 1625 
L 3713 1625 
L 3713 1100 
L 3047 1100 
L 3047 0 
L 2419 0 
L 2419 1100 
L 313 1100 
L 313 1709 
L 2253 4666 
z
" transform="scale(0.015625)"/>
       </defs>
       <use xlink:href="#DejaVuSans-32"/>
       <use xlink:href="#DejaVuSans-30" x="63.623047"/>
       <use xlink:href="#DejaVuSans-31" x="127.246094"/>
       <use xlink:href="#DejaVuSans-34" x="190.869141"/>
      </g>
     </g>
    </g>
    <g id="xtick_6">
     <g id="line2d_11">
      <path d="M 353.425111 376.879837 
L 353.425111 11.759062 
" clip-path="url(#pad8e8b8911)" style="fill: none; stroke-dasharray: 0.8,1.32; stroke-dashoffset: 0; stroke: #b0b0b0; stroke-width: 0.8"/>
     </g>
     <g id="line2d_12">
      <g>
       <use xlink:href="#me6367ec658" x="353.425111" y="376.879837" style="stroke: #000000; stroke-width: 0.8"/>
      </g>
     </g>
     <g id="text_6">
      <!-- 2016 -->
      <g transform="translate(330.065397 411.922366) rotate(-45) scale(0.12 -0.12)">
       <use xlink:href="#DejaVuSans-32"/>
       <use xlink:href="#DejaVuSans-30" x="63.623047"/>
       <use xlink:href="#DejaVuSans-31" x="127.246094"/>
       <use xlink:href="#DejaVuSans-36" x="190.869141"/>
      </g>
     </g>
    </g>
    <g id="xtick_7">
     <g id="line2d_13">
      <path d="M 412.107333 376.879837 
L 412.107333 11.759062 
" clip-path="url(#pad8e8b8911)" style="fill: none; stroke-dasharray: 0.8,1.32; stroke-dashoffset: 0; stroke: #b0b0b0; stroke-width: 0.8"/>
     </g>
     <g id="line2d_14">
      <g>
       <use xlink:href="#me6367ec658" x="412.107333" y="376.879837" style="stroke: #000000; stroke-width: 0.8"/>
      </g>
     </g>
     <g id="text_7">
      <!-- 2018 -->
      <g transform="translate(388.747619 411.922366) rotate(-45) scale(0.12 -0.12)">
       <use xlink:href="#DejaVuSans-32"/>
       <use xlink:href="#DejaVuSans-30" x="63.623047"/>
       <use xlink:href="#DejaVuSans-31" x="127.246094"/>
       <use xlink:href="#DejaVuSans-38" x="190.869141"/>
      </g>
     </g>
    </g>
    <g id="xtick_8">
     <g id="line2d_15">
      <path d="M 470.789556 376.879837 
L 470.789556 11.759062 
" clip-path="url(#pad8e8b8911)" style="fill: none; stroke-dasharray: 0.8,1.32; stroke-dashoffset: 0; stroke: #b0b0b0; stroke-width: 0.8"/>
     </g>
     <g id="line2d_16">
      <g>
       <use xlink:href="#me6367ec658" x="470.789556" y="376.879837" style="stroke: #000000; stroke-width: 0.8"/>
      </g>
     </g>
     <g id="text_8">
      <!-- 2020 -->
      <g transform="translate(447.429841 411.922366) rotate(-45) scale(0.12 -0.12)">
       <use xlink:href="#DejaVuSans-32"/>
       <use xlink:href="#DejaVuSans-30" x="63.623047"/>
       <use xlink:href="#DejaVuSans-32" x="127.246094"/>
       <use xlink:href="#DejaVuSans-30" x="190.869141"/>
      </g>
     </g>
    </g>
    <g id="xtick_9">
     <g id="line2d_17">
      <path d="M 529.471778 376.879837 
L 529.471778 11.759062 
" clip-path="url(#pad8e8b8911)" style="fill: none; stroke-dasharray: 0.8,1.32; stroke-dashoffset: 0; stroke: #b0b0b0; stroke-width: 0.8"/>
     </g>
     <g id="line2d_18">
      <g>
       <use xlink:href="#me6367ec658" x="529.471778" y="376.879837" style="stroke: #000000; stroke-width: 0.8"/>
      </g>
     </g>
     <g id="text_9">
      <!-- 2022 -->
      <g transform="translate(506.112063 411.922366) rotate(-45) scale(0.12 -0.12)">
       <use xlink:href="#DejaVuSans-32"/>
       <use xlink:href="#DejaVuSans-30" x="63.623047"/>
       <use xlink:href="#DejaVuSans-32" x="127.246094"/>
       <use xlink:href="#DejaVuSans-32" x="190.869141"/>
      </g>
     </g>
    </g>
    <g id="xtick_10">
     <g id="line2d_19">
      <path d="M 588.154 376.879837 
L 588.154 11.759062 
" clip-path="url(#pad8e8b8911)" style="fill: none; stroke-dasharray: 0.8,1.32; stroke-dashoffset: 0; stroke: #b0b0b0; stroke-width: 0.8"/>
     </g>
     <g id="line2d_20">
      <g>
       <use xlink:href="#me6367ec658" x="588.154" y="376.879837" style="stroke: #000000; stroke-width: 0.8"/>
      </g>
     </g>
     <g id="text_10">
      <!-- 2024 -->
      <g transform="translate(564.794286 411.922366) rotate(-45) scale(0.12 -0.12)">
       <use xlink:href="#DejaVuSans-32"/>
       <use xlink:href="#DejaVuSans-30" x="63.623047"/>
       <use xlink:href="#DejaVuSans-32" x="127.246094"/>
       <use xlink:href="#DejaVuSans-34" x="190.869141"/>
      </g>
     </g>
    </g>
    <g id="text_11">
     <!-- Date -->
     <g transform="translate(304.96275 429.844539) scale(0.16 -0.16)">
      <defs>
       <path id="DejaVuSans-44" d="M 1259 4147 
L 1259 519 
L 2022 519 
Q 2988 519 3436 956 
Q 3884 1394 3884 2338 
Q 3884 3275 3436 3711 
Q 2988 4147 2022 4147 
L 1259 4147 
z
M 628 4666 
L 1925 4666 
Q 3281 4666 3915 4102 
Q 4550 3538 4550 2338 
Q 4550 1131 3912 565 
Q 3275 0 1925 0 
L 628 0 
L 628 4666 
z
" transform="scale(0.015625)"/>
       <path id="DejaVuSans-61" d="M 2194 1759 
Q 1497 1759 1228 1600 
Q 959 1441 959 1056 
Q 959 750 1161 570 
Q 1363 391 1709 391 
Q 2188 391 2477 730 
Q 2766 1069 2766 1631 
L 2766 1759 
L 2194 1759 
z
M 3341 1997 
L 3341 0 
L 2766 0 
L 2766 531 
Q 2569 213 2275 61 
Q 1981 -91 1556 -91 
Q 1019 -91 701 211 
Q 384 513 384 1019 
Q 384 1609 779 1909 
Q 1175 2209 1959 2209 
L 2766 2209 
L 2766 2266 
Q 2766 2663 2505 2880 
Q 2244 3097 1772 3097 
Q 1472 3097 1187 3025 
Q 903 2953 641 2809 
L 641 3341 
Q 956 3463 1253 3523 
Q 1550 3584 1831 3584 
Q 2591 3584 2966 3190 
Q 3341 2797 3341 1997 
z
" transform="scale(0.015625)"/>
       <path id="DejaVuSans-74" d="M 1172 4494 
L 1172 3500 
L 2356 3500 
L 2356 3053 
L 1172 3053 
L 1172 1153 
Q 1172 725 1289 603 
Q 1406 481 1766 481 
L 2356 481 
L 2356 0 
L 1766 0 
Q 1100 0 847 248 
Q 594 497 594 1153 
L 594 3053 
L 172 3053 
L 172 3500 
L 594 3500 
L 594 4494 
L 1172 4494 
z
" transform="scale(0.015625)"/>
       <path id="DejaVuSans-65" d="M 3597 1894 
L 3597 1613 
L 953 1613 
Q 991 1019 1311 708 
Q 1631 397 2203 397 
Q 2534 397 2845 478 
Q 3156 559 3463 722 
L 3463 178 
Q 3153 47 2828 -22 
Q 2503 -91 2169 -91 
Q 1331 -91 842 396 
Q 353 884 353 1716 
Q 353 2575 817 3079 
Q 1281 3584 2069 3584 
Q 2775 3584 3186 3129 
Q 3597 2675 3597 1894 
z
M 3022 2063 
Q 3016 2534 2758 2815 
Q 2500 3097 2075 3097 
Q 1594 3097 1305 2825 
Q 1016 2553 972 2059 
L 3022 2063 
z
" transform="scale(0.015625)"/>
      </defs>
      <use xlink:href="#DejaVuSans-44"/>
      <use xlink:href="#DejaVuSans-61" x="77.001953"/>
      <use xlink:href="#DejaVuSans-74" x="138.28125"/>
      <use xlink:href="#DejaVuSans-65" x="177.490234"/>
     </g>
    </g>
   </g>
   <g id="matplotlib.axis_2">
    <g id="ytick_1">
     <g id="line2d_21">
      <path d="M 60.014 376.879837 
L 588.154 376.879837 
" clip-path="url(#pad8e8b8911)" style="fill: none; stroke-dasharray: 0.8,1.32; stroke-dashoffset: 0; stroke: #b0b0b0; stroke-width: 0.8"/>
     </g>
     <g id="line2d_22">
      <defs>
       <path id="m67d466c02c" d="M 0 0 
L -3.5 0 
" style="stroke: #000000; stroke-width: 0.8"/>
      </defs>
      <g>
       <use xlink:href="#m67d466c02c" x="60.014" y="376.879837" style="stroke: #000000; stroke-width: 0.8"/>
      </g>
     </g>
     <g id="text_12">
      <!-- 1.0 -->
      <g transform="translate(33.93025 381.438899) scale(0.12 -0.12)">
       <defs>
        <path id="DejaVuSans-2e" d="M 684 794 
L 1344 794 
L 1344 0 
L 684 0 
L 684 794 
z
" transform="scale(0.015625)"/>
       </defs>
       <use xlink:href="#DejaVuSans-31"/>
       <use xlink:href="#DejaVuSans-2e" x="63.623047"/>
       <use xlink:href="#DejaVuSans-30" x="95.410156"/>
      </g>
     </g>
    </g>
    <g id="ytick_2">
     <g id="line2d_23">
      <path d="M 60.014 331.23974 
L 588.154 331.23974 
" clip-path="url(#pad8e8b8911)" style="fill: none; stroke-dasharray: 0.8,1.32; stroke-dashoffset: 0; stroke: #b0b0b0; stroke-width: 0.8"/>
     </g>
     <g id="line2d_24">
      <g>
       <use xlink:href="#m67d466c02c" x="60.014" y="331.23974" style="stroke: #000000; stroke-width: 0.8"/>
      </g>
     </g>
     <g id="text_13">
      <!-- 1.2 -->
      <g transform="translate(33.93025 335.798803) scale(0.12 -0.12)">
       <use xlink:href="#DejaVuSans-31"/>
       <use xlink:href="#DejaVuSans-2e" x="63.623047"/>
       <use xlink:href="#DejaVuSans-32" x="95.410156"/>
      </g>
     </g>
    </g>
    <g id="ytick_3">
     <g id="line2d_25">
      <path d="M 60.014 285.599643 
L 588.154 285.599643 
" clip-path="url(#pad8e8b8911)" style="fill: none; stroke-dasharray: 0.8,1.32; stroke-dashoffset: 0; stroke: #b0b0b0; stroke-width: 0.8"/>
     </g>
     <g id="line2d_26">
      <g>
       <use xlink:href="#m67d466c02c" x="60.014" y="285.599643" style="stroke: #000000; stroke-width: 0.8"/>
      </g>
     </g>
     <g id="text_14">
      <!-- 1.4 -->
      <g transform="translate(33.93025 290.158706) scale(0.12 -0.12)">
       <use xlink:href="#DejaVuSans-31"/>
       <use xlink:href="#DejaVuSans-2e" x="63.623047"/>
       <use xlink:href="#DejaVuSans-34" x="95.410156"/>
      </g>
     </g>
    </g>
    <g id="ytick_4">
     <g id="line2d_27">
      <path d="M 60.014 239.959547 
L 588.154 239.959547 
" clip-path="url(#pad8e8b8911)" style="fill: none; stroke-dasharray: 0.8,1.32; stroke-dashoffset: 0; stroke: #b0b0b0; stroke-width: 0.8"/>
     </g>
     <g id="line2d_28">
      <g>
       <use xlink:href="#m67d466c02c" x="60.014" y="239.959547" style="stroke: #000000; stroke-width: 0.8"/>
      </g>
     </g>
     <g id="text_15">
      <!-- 1.6 -->
      <g transform="translate(33.93025 244.518609) scale(0.12 -0.12)">
       <use xlink:href="#DejaVuSans-31"/>
       <use xlink:href="#DejaVuSans-2e" x="63.623047"/>
       <use xlink:href="#DejaVuSans-36" x="95.410156"/>
      </g>
     </g>
    </g>
    <g id="ytick_5">
     <g id="line2d_29">
      <path d="M 60.014 194.31945 
L 588.154 194.31945 
" clip-path="url(#pad8e8b8911)" style="fill: none; stroke-dasharray: 0.8,1.32; stroke-dashoffset: 0; stroke: #b0b0b0; stroke-width: 0.8"/>
     </g>
     <g id="line2d_30">
      <g>
       <use xlink:href="#m67d466c02c" x="60.014" y="194.31945" style="stroke: #000000; stroke-width: 0.8"/>
      </g>
     </g>
     <g id="text_16">
      <!-- 1.8 -->
      <g transform="translate(33.93025 198.878512) scale(0.12 -0.12)">
       <use xlink:href="#DejaVuSans-31"/>
       <use xlink:href="#DejaVuSans-2e" x="63.623047"/>
       <use xlink:href="#DejaVuSans-38" x="95.410156"/>
      </g>
     </g>
    </g>
    <g id="ytick_6">
     <g id="line2d_31">
      <path d="M 60.014 148.679353 
L 588.154 148.679353 
" clip-path="url(#pad8e8b8911)" style="fill: none; stroke-dasharray: 0.8,1.32; stroke-dashoffset: 0; stroke: #b0b0b0; stroke-width: 0.8"/>
     </g>
     <g id="line2d_32">
      <g>
       <use xlink:href="#m67d466c02c" x="60.014" y="148.679353" style="stroke: #000000; stroke-width: 0.8"/>
      </g>
     </g>
     <g id="text_17">
      <!-- 2.0 -->
      <g transform="translate(33.93025 153.238415) scale(0.12 -0.12)">
       <use xlink:href="#DejaVuSans-32"/>
       <use xlink:href="#DejaVuSans-2e" x="63.623047"/>
       <use xlink:href="#DejaVuSans-30" x="95.410156"/>
      </g>
     </g>
    </g>
    <g id="ytick_7">
     <g id="line2d_33">
      <path d="M 60.014 103.039256 
L 588.154 103.039256 
" clip-path="url(#pad8e8b8911)" style="fill: none; stroke-dasharray: 0.8,1.32; stroke-dashoffset: 0; stroke: #b0b0b0; stroke-width: 0.8"/>
     </g>
     <g id="line2d_34">
      <g>
       <use xlink:href="#m67d466c02c" x="60.014" y="103.039256" style="stroke: #000000; stroke-width: 0.8"/>
      </g>
     </g>
     <g id="text_18">
      <!-- 2.2 -->
      <g transform="translate(33.93025 107.598319) scale(0.12 -0.12)">
       <use xlink:href="#DejaVuSans-32"/>
       <use xlink:href="#DejaVuSans-2e" x="63.623047"/>
       <use xlink:href="#DejaVuSans-32" x="95.410156"/>
      </g>
     </g>
    </g>
    <g id="ytick_8">
     <g id="line2d_35">
      <path d="M 60.014 57.399159 
L 588.154 57.399159 
" clip-path="url(#pad8e8b8911)" style="fill: none; stroke-dasharray: 0.8,1.32; stroke-dashoffset: 0; stroke: #b0b0b0; stroke-width: 0.8"/>
     </g>
     <g id="line2d_36">
      <g>
       <use xlink:href="#m67d466c02c" x="60.014" y="57.399159" style="stroke: #000000; stroke-width: 0.8"/>
      </g>
     </g>
     <g id="text_19">
      <!-- 2.4 -->
      <g transform="translate(33.93025 61.958222) scale(0.12 -0.12)">
       <use xlink:href="#DejaVuSans-32"/>
       <use xlink:href="#DejaVuSans-2e" x="63.623047"/>
       <use xlink:href="#DejaVuSans-34" x="95.410156"/>
      </g>
     </g>
    </g>
    <g id="ytick_9">
     <g id="line2d_37">
      <path d="M 60.014 11.759062 
L 588.154 11.759062 
" clip-path="url(#pad8e8b8911)" style="fill: none; stroke-dasharray: 0.8,1.32; stroke-dashoffset: 0; stroke: #b0b0b0; stroke-width: 0.8"/>
     </g>
     <g id="line2d_38">
      <g>
       <use xlink:href="#m67d466c02c" x="60.014" y="11.759062" style="stroke: #000000; stroke-width: 0.8"/>
      </g>
     </g>
     <g id="text_20">
      <!-- 2.6 -->
      <g transform="translate(33.93025 16.318125) scale(0.12 -0.12)">
       <use xlink:href="#DejaVuSans-32"/>
       <use xlink:href="#DejaVuSans-2e" x="63.623047"/>
       <use xlink:href="#DejaVuSans-36" x="95.410156"/>
      </g>
     </g>
    </g>
    <g id="text_21">
     <!-- PUE [-] -->
     <g transform="translate(26.60275 221.72445) rotate(-90) scale(0.16 -0.16)">
      <defs>
       <path id="DejaVuSans-50" d="M 1259 4147 
L 1259 2394 
L 2053 2394 
Q 2494 2394 2734 2622 
Q 2975 2850 2975 3272 
Q 2975 3691 2734 3919 
Q 2494 4147 2053 4147 
L 1259 4147 
z
M 628 4666 
L 2053 4666 
Q 2838 4666 3239 4311 
Q 3641 3956 3641 3272 
Q 3641 2581 3239 2228 
Q 2838 1875 2053 1875 
L 1259 1875 
L 1259 0 
L 628 0 
L 628 4666 
z
" transform="scale(0.015625)"/>
       <path id="DejaVuSans-55" d="M 556 4666 
L 1191 4666 
L 1191 1831 
Q 1191 1081 1462 751 
Q 1734 422 2344 422 
Q 2950 422 3222 751 
Q 3494 1081 3494 1831 
L 3494 4666 
L 4128 4666 
L 4128 1753 
Q 4128 841 3676 375 
Q 3225 -91 2344 -91 
Q 1459 -91 1007 375 
Q 556 841 556 1753 
L 556 4666 
z
" transform="scale(0.015625)"/>
       <path id="DejaVuSans-45" d="M 628 4666 
L 3578 4666 
L 3578 4134 
L 1259 4134 
L 1259 2753 
L 3481 2753 
L 3481 2222 
L 1259 2222 
L 1259 531 
L 3634 531 
L 3634 0 
L 628 0 
L 628 4666 
z
" transform="scale(0.015625)"/>
       <path id="DejaVuSans-20" transform="scale(0.015625)"/>
       <path id="DejaVuSans-5b" d="M 550 4863 
L 1875 4863 
L 1875 4416 
L 1125 4416 
L 1125 -397 
L 1875 -397 
L 1875 -844 
L 550 -844 
L 550 4863 
z
" transform="scale(0.015625)"/>
       <path id="DejaVuSans-2d" d="M 313 2009 
L 1997 2009 
L 1997 1497 
L 313 1497 
L 313 2009 
z
" transform="scale(0.015625)"/>
       <path id="DejaVuSans-5d" d="M 1947 4863 
L 1947 -844 
L 622 -844 
L 622 -397 
L 1369 -397 
L 1369 4416 
L 622 4416 
L 622 4863 
L 1947 4863 
z
" transform="scale(0.015625)"/>
      </defs>
      <use xlink:href="#DejaVuSans-50"/>
      <use xlink:href="#DejaVuSans-55" x="60.302734"/>
      <use xlink:href="#DejaVuSans-45" x="133.496094"/>
      <use xlink:href="#DejaVuSans-20" x="196.679688"/>
      <use xlink:href="#DejaVuSans-5b" x="228.466797"/>
      <use xlink:href="#DejaVuSans-2d" x="267.480469"/>
      <use xlink:href="#DejaVuSans-5d" x="303.564453"/>
     </g>
    </g>
   </g>
   <g id="line2d_39">
    <path d="M 89.355111 34.579111 
L 206.719556 153.525309 
L 294.742889 228.857901 
L 412.107333 244.717394 
L 441.448444 224.011945 
L 470.789556 242.514687 
L 500.130667 246.920102 
L 529.471778 251.766058 
L 558.812889 244.717394 
" clip-path="url(#pad8e8b8911)" style="fill: none; stroke: #0000ff; stroke-width: 1.5; stroke-linecap: square"/>
   </g>
   <g id="line2d_40">
    <path d="M 133.167794 329.106158 
L 147.639365 333.558851 
L 170.215017 333.558851 
L 177.161371 335.785197 
L 184.686588 335.785197 
L 199.158159 340.237889 
L 206.683377 340.423418 
L 221.154948 345.061639 
L 228.680165 344.87611 
L 235.62652 347.102457 
L 250.676954 347.287986 
L 257.623308 349.514332 
L 272.673742 349.514332 
L 280.19896 349.514332 
L 294.091668 349.514332 
L 305.090062 349.514332 
L 317.246182 349.514332 
L 328.82344 349.514332 
L 339.821834 349.514332 
L 351.977954 349.514332 
L 368.186114 349.514332 
L 380.921097 349.514332 
L 389.025177 349.514332 
L 397.129257 349.514332 
L 404.654474 351.740678 
L 415.652868 351.740678 
L 427.230125 351.740678 
L 438.22852 351.740678 
L 450.38464 351.740678 
L 456.173268 351.740678 
L 463.119623 354.152553 
L 470.64484 353.967024 
L 478.170057 353.967024 
L 485.116411 351.740678 
L 492.641628 353.967024 
L 506.534337 353.967024 
L 519.26932 353.967024 
L 529.688851 353.967024 
L 543.58156 353.967024 
L 552.843366 353.967024 
L 566.157211 353.967024 
L 580.628783 353.967024 
L 587.575137 356.19337 
" clip-path="url(#pad8e8b8911)" style="fill: none; stroke: #ff0000; stroke-width: 1.5; stroke-linecap: square"/>
   </g>
   <g id="line2d_41">
    <path d="M 133.167794 324.467937 
L 140.114148 340.423418 
L 148.218228 342.835293 
L 155.164582 331.146976 
L 162.689799 326.694283 
L 169.636154 340.423418 
L 177.161371 342.649764 
L 184.686588 338.011543 
L 191.632942 331.332505 
L 199.158159 347.102457 
L 206.683377 347.102457 
L 214.208594 344.87611 
L 221.154948 340.608947 
L 228.680165 349.328803 
L 236.205382 351.740678 
L 243.151737 349.514332 
L 250.676954 345.061639 
L 258.202171 351.740678 
L 265.148525 349.514332 
L 272.673742 349.514332 
L 280.19896 345.061639 
L 287.145314 351.740678 
L 302.195748 351.740678 
L 309.142102 347.287986 
L 316.66732 351.740678 
L 324.192537 351.740678 
L 331.138891 349.514332 
L 338.664108 345.247168 
L 346.189325 351.740678 
L 353.13568 351.740678 
L 360.082034 349.699861 
L 368.186114 345.061639 
L 375.132468 351.740678 
L 390.182903 351.740678 
L 397.129257 347.287986 
L 404.654474 354.152553 
L 412.179691 353.967024 
L 419.126045 349.514332 
L 426.651263 347.287986 
L 433.597617 353.967024 
L 441.122834 356.19337 
L 456.173268 347.287986 
L 463.119623 353.967024 
L 470.64484 356.19337 
L 485.116411 347.287986 
L 492.641628 356.378899 
L 500.166846 356.19337 
L 507.1132 354.152553 
L 514.638417 349.699861 
L 522.163634 356.19337 
L 529.688851 356.19337 
L 536.635206 353.967024 
L 544.160423 349.514332 
L 551.106777 358.605245 
L 558.631994 358.605245 
L 573.103566 349.699861 
L 580.628783 358.605245 
L 587.575137 358.605245 
" clip-path="url(#pad8e8b8911)" style="fill: none; stroke: #ff0000; stroke-opacity: 0.3; stroke-width: 1.5; stroke-linecap: square"/>
   </g>
   <g id="patch_3">
    <path d="M 60.014 376.879837 
L 60.014 11.759062 
" style="fill: none; stroke: #000000; stroke-width: 0.8; stroke-linejoin: miter; stroke-linecap: square"/>
   </g>
   <g id="patch_4">
    <path d="M 588.154 376.879837 
L 588.154 11.759062 
" style="fill: none; stroke: #000000; stroke-width: 0.8; stroke-linejoin: miter; stroke-linecap: square"/>
   </g>
   <g id="patch_5">
    <path d="M 60.014 376.879837 
L 588.154 376.879837 
" style="fill: none; stroke: #000000; stroke-width: 0.8; stroke-linejoin: miter; stroke-linecap: square"/>
   </g>
   <g id="patch_6">
    <path d="M 60.014 11.759062 
L 588.154 11.759062 
" style="fill: none; stroke: #000000; stroke-width: 0.8; stroke-linejoin: miter; stroke-linecap: square"/>
   </g>
   <g id="text_22">
    <!-- $^1$ https://journal.uptimeinstitute.com/global-pues-are-they-going-anywhere/ -->
    <g transform="translate(7.2 449.903992) scale(0.1 -0.1)">
     <defs>
      <path id="DejaVuSans-68" d="M 3513 2113 
L 3513 0 
L 2938 0 
L 2938 2094 
Q 2938 2591 2744 2837 
Q 2550 3084 2163 3084 
Q 1697 3084 1428 2787 
Q 1159 2491 1159 1978 
L 1159 0 
L 581 0 
L 581 4863 
L 1159 4863 
L 1159 2956 
Q 1366 3272 1645 3428 
Q 1925 3584 2291 3584 
Q 2894 3584 3203 3211 
Q 3513 2838 3513 2113 
z
" transform="scale(0.015625)"/>
      <path id="DejaVuSans-70" d="M 1159 525 
L 1159 -1331 
L 581 -1331 
L 581 3500 
L 1159 3500 
L 1159 2969 
Q 1341 3281 1617 3432 
Q 1894 3584 2278 3584 
Q 2916 3584 3314 3078 
Q 3713 2572 3713 1747 
Q 3713 922 3314 415 
Q 2916 -91 2278 -91 
Q 1894 -91 1617 61 
Q 1341 213 1159 525 
z
M 3116 1747 
Q 3116 2381 2855 2742 
Q 2594 3103 2138 3103 
Q 1681 3103 1420 2742 
Q 1159 2381 1159 1747 
Q 1159 1113 1420 752 
Q 1681 391 2138 391 
Q 2594 391 2855 752 
Q 3116 1113 3116 1747 
z
" transform="scale(0.015625)"/>
      <path id="DejaVuSans-73" d="M 2834 3397 
L 2834 2853 
Q 2591 2978 2328 3040 
Q 2066 3103 1784 3103 
Q 1356 3103 1142 2972 
Q 928 2841 928 2578 
Q 928 2378 1081 2264 
Q 1234 2150 1697 2047 
L 1894 2003 
Q 2506 1872 2764 1633 
Q 3022 1394 3022 966 
Q 3022 478 2636 193 
Q 2250 -91 1575 -91 
Q 1294 -91 989 -36 
Q 684 19 347 128 
L 347 722 
Q 666 556 975 473 
Q 1284 391 1588 391 
Q 1994 391 2212 530 
Q 2431 669 2431 922 
Q 2431 1156 2273 1281 
Q 2116 1406 1581 1522 
L 1381 1569 
Q 847 1681 609 1914 
Q 372 2147 372 2553 
Q 372 3047 722 3315 
Q 1072 3584 1716 3584 
Q 2034 3584 2315 3537 
Q 2597 3491 2834 3397 
z
" transform="scale(0.015625)"/>
      <path id="DejaVuSans-3a" d="M 750 794 
L 1409 794 
L 1409 0 
L 750 0 
L 750 794 
z
M 750 3309 
L 1409 3309 
L 1409 2516 
L 750 2516 
L 750 3309 
z
" transform="scale(0.015625)"/>
      <path id="DejaVuSans-2f" d="M 1625 4666 
L 2156 4666 
L 531 -594 
L 0 -594 
L 1625 4666 
z
" transform="scale(0.015625)"/>
      <path id="DejaVuSans-6a" d="M 603 3500 
L 1178 3500 
L 1178 -63 
Q 1178 -731 923 -1031 
Q 669 -1331 103 -1331 
L -116 -1331 
L -116 -844 
L 38 -844 
Q 366 -844 484 -692 
Q 603 -541 603 -63 
L 603 3500 
z
M 603 4863 
L 1178 4863 
L 1178 4134 
L 603 4134 
L 603 4863 
z
" transform="scale(0.015625)"/>
      <path id="DejaVuSans-6f" d="M 1959 3097 
Q 1497 3097 1228 2736 
Q 959 2375 959 1747 
Q 959 1119 1226 758 
Q 1494 397 1959 397 
Q 2419 397 2687 759 
Q 2956 1122 2956 1747 
Q 2956 2369 2687 2733 
Q 2419 3097 1959 3097 
z
M 1959 3584 
Q 2709 3584 3137 3096 
Q 3566 2609 3566 1747 
Q 3566 888 3137 398 
Q 2709 -91 1959 -91 
Q 1206 -91 779 398 
Q 353 888 353 1747 
Q 353 2609 779 3096 
Q 1206 3584 1959 3584 
z
" transform="scale(0.015625)"/>
      <path id="DejaVuSans-75" d="M 544 1381 
L 544 3500 
L 1119 3500 
L 1119 1403 
Q 1119 906 1312 657 
Q 1506 409 1894 409 
Q 2359 409 2629 706 
Q 2900 1003 2900 1516 
L 2900 3500 
L 3475 3500 
L 3475 0 
L 2900 0 
L 2900 538 
Q 2691 219 2414 64 
Q 2138 -91 1772 -91 
Q 1169 -91 856 284 
Q 544 659 544 1381 
z
M 1991 3584 
L 1991 3584 
z
" transform="scale(0.015625)"/>
      <path id="DejaVuSans-72" d="M 2631 2963 
Q 2534 3019 2420 3045 
Q 2306 3072 2169 3072 
Q 1681 3072 1420 2755 
Q 1159 2438 1159 1844 
L 1159 0 
L 581 0 
L 581 3500 
L 1159 3500 
L 1159 2956 
Q 1341 3275 1631 3429 
Q 1922 3584 2338 3584 
Q 2397 3584 2469 3576 
Q 2541 3569 2628 3553 
L 2631 2963 
z
" transform="scale(0.015625)"/>
      <path id="DejaVuSans-6e" d="M 3513 2113 
L 3513 0 
L 2938 0 
L 2938 2094 
Q 2938 2591 2744 2837 
Q 2550 3084 2163 3084 
Q 1697 3084 1428 2787 
Q 1159 2491 1159 1978 
L 1159 0 
L 581 0 
L 581 3500 
L 1159 3500 
L 1159 2956 
Q 1366 3272 1645 3428 
Q 1925 3584 2291 3584 
Q 2894 3584 3203 3211 
Q 3513 2838 3513 2113 
z
" transform="scale(0.015625)"/>
      <path id="DejaVuSans-6c" d="M 603 4863 
L 1178 4863 
L 1178 0 
L 603 0 
L 603 4863 
z
" transform="scale(0.015625)"/>
      <path id="DejaVuSans-69" d="M 603 3500 
L 1178 3500 
L 1178 0 
L 603 0 
L 603 3500 
z
M 603 4863 
L 1178 4863 
L 1178 4134 
L 603 4134 
L 603 4863 
z
" transform="scale(0.015625)"/>
      <path id="DejaVuSans-6d" d="M 3328 2828 
Q 3544 3216 3844 3400 
Q 4144 3584 4550 3584 
Q 5097 3584 5394 3201 
Q 5691 2819 5691 2113 
L 5691 0 
L 5113 0 
L 5113 2094 
Q 5113 2597 4934 2840 
Q 4756 3084 4391 3084 
Q 3944 3084 3684 2787 
Q 3425 2491 3425 1978 
L 3425 0 
L 2847 0 
L 2847 2094 
Q 2847 2600 2669 2842 
Q 2491 3084 2119 3084 
Q 1678 3084 1418 2786 
Q 1159 2488 1159 1978 
L 1159 0 
L 581 0 
L 581 3500 
L 1159 3500 
L 1159 2956 
Q 1356 3278 1631 3431 
Q 1906 3584 2284 3584 
Q 2666 3584 2933 3390 
Q 3200 3197 3328 2828 
z
" transform="scale(0.015625)"/>
      <path id="DejaVuSans-63" d="M 3122 3366 
L 3122 2828 
Q 2878 2963 2633 3030 
Q 2388 3097 2138 3097 
Q 1578 3097 1268 2742 
Q 959 2388 959 1747 
Q 959 1106 1268 751 
Q 1578 397 2138 397 
Q 2388 397 2633 464 
Q 2878 531 3122 666 
L 3122 134 
Q 2881 22 2623 -34 
Q 2366 -91 2075 -91 
Q 1284 -91 818 406 
Q 353 903 353 1747 
Q 353 2603 823 3093 
Q 1294 3584 2113 3584 
Q 2378 3584 2631 3529 
Q 2884 3475 3122 3366 
z
" transform="scale(0.015625)"/>
      <path id="DejaVuSans-67" d="M 2906 1791 
Q 2906 2416 2648 2759 
Q 2391 3103 1925 3103 
Q 1463 3103 1205 2759 
Q 947 2416 947 1791 
Q 947 1169 1205 825 
Q 1463 481 1925 481 
Q 2391 481 2648 825 
Q 2906 1169 2906 1791 
z
M 3481 434 
Q 3481 -459 3084 -895 
Q 2688 -1331 1869 -1331 
Q 1566 -1331 1297 -1286 
Q 1028 -1241 775 -1147 
L 775 -588 
Q 1028 -725 1275 -790 
Q 1522 -856 1778 -856 
Q 2344 -856 2625 -561 
Q 2906 -266 2906 331 
L 2906 616 
Q 2728 306 2450 153 
Q 2172 0 1784 0 
Q 1141 0 747 490 
Q 353 981 353 1791 
Q 353 2603 747 3093 
Q 1141 3584 1784 3584 
Q 2172 3584 2450 3431 
Q 2728 3278 2906 2969 
L 2906 3500 
L 3481 3500 
L 3481 434 
z
" transform="scale(0.015625)"/>
      <path id="DejaVuSans-62" d="M 3116 1747 
Q 3116 2381 2855 2742 
Q 2594 3103 2138 3103 
Q 1681 3103 1420 2742 
Q 1159 2381 1159 1747 
Q 1159 1113 1420 752 
Q 1681 391 2138 391 
Q 2594 391 2855 752 
Q 3116 1113 3116 1747 
z
M 1159 2969 
Q 1341 3281 1617 3432 
Q 1894 3584 2278 3584 
Q 2916 3584 3314 3078 
Q 3713 2572 3713 1747 
Q 3713 922 3314 415 
Q 2916 -91 2278 -91 
Q 1894 -91 1617 61 
Q 1341 213 1159 525 
L 1159 0 
L 581 0 
L 581 4863 
L 1159 4863 
L 1159 2969 
z
" transform="scale(0.015625)"/>
      <path id="DejaVuSans-79" d="M 2059 -325 
Q 1816 -950 1584 -1140 
Q 1353 -1331 966 -1331 
L 506 -1331 
L 506 -850 
L 844 -850 
Q 1081 -850 1212 -737 
Q 1344 -625 1503 -206 
L 1606 56 
L 191 3500 
L 800 3500 
L 1894 763 
L 2988 3500 
L 3597 3500 
L 2059 -325 
z
" transform="scale(0.015625)"/>
      <path id="DejaVuSans-77" d="M 269 3500 
L 844 3500 
L 1563 769 
L 2278 3500 
L 2956 3500 
L 3675 769 
L 4391 3500 
L 4966 3500 
L 4050 0 
L 3372 0 
L 2619 2869 
L 1863 0 
L 1184 0 
L 269 3500 
z
" transform="scale(0.015625)"/>
     </defs>
     <use xlink:href="#DejaVuSans-31" transform="translate(0.957031 38.965625) scale(0.7)"/>
     <use xlink:href="#DejaVuSans-20" transform="translate(48.227539 0.684375)"/>
     <use xlink:href="#DejaVuSans-68" transform="translate(80.014648 0.684375)"/>
     <use xlink:href="#DejaVuSans-74" transform="translate(143.393555 0.684375)"/>
     <use xlink:href="#DejaVuSans-74" transform="translate(182.602539 0.684375)"/>
     <use xlink:href="#DejaVuSans-70" transform="translate(221.811523 0.684375)"/>
     <use xlink:href="#DejaVuSans-73" transform="translate(285.288086 0.684375)"/>
     <use xlink:href="#DejaVuSans-3a" transform="translate(337.387695 0.684375)"/>
     <use xlink:href="#DejaVuSans-2f" transform="translate(371.079102 0.684375)"/>
     <use xlink:href="#DejaVuSans-2f" transform="translate(404.770508 0.684375)"/>
     <use xlink:href="#DejaVuSans-6a" transform="translate(438.461914 0.684375)"/>
     <use xlink:href="#DejaVuSans-6f" transform="translate(466.245117 0.684375)"/>
     <use xlink:href="#DejaVuSans-75" transform="translate(527.426758 0.684375)"/>
     <use xlink:href="#DejaVuSans-72" transform="translate(590.805664 0.684375)"/>
     <use xlink:href="#DejaVuSans-6e" transform="translate(631.918945 0.684375)"/>
     <use xlink:href="#DejaVuSans-61" transform="translate(695.297852 0.684375)"/>
     <use xlink:href="#DejaVuSans-6c" transform="translate(756.577148 0.684375)"/>
     <use xlink:href="#DejaVuSans-2e" transform="translate(784.360352 0.684375)"/>
     <use xlink:href="#DejaVuSans-75" transform="translate(816.147461 0.684375)"/>
     <use xlink:href="#DejaVuSans-70" transform="translate(879.526367 0.684375)"/>
     <use xlink:href="#DejaVuSans-74" transform="translate(943.00293 0.684375)"/>
     <use xlink:href="#DejaVuSans-69" transform="translate(982.211914 0.684375)"/>
     <use xlink:href="#DejaVuSans-6d" transform="translate(1009.995117 0.684375)"/>
     <use xlink:href="#DejaVuSans-65" transform="translate(1107.407227 0.684375)"/>
     <use xlink:href="#DejaVuSans-69" transform="translate(1168.930664 0.684375)"/>
     <use xlink:href="#DejaVuSans-6e" transform="translate(1196.713867 0.684375)"/>
     <use xlink:href="#DejaVuSans-73" transform="translate(1260.092773 0.684375)"/>
     <use xlink:href="#DejaVuSans-74" transform="translate(1312.192383 0.684375)"/>
     <use xlink:href="#DejaVuSans-69" transform="translate(1351.401367 0.684375)"/>
     <use xlink:href="#DejaVuSans-74" transform="translate(1379.18457 0.684375)"/>
     <use xlink:href="#DejaVuSans-75" transform="translate(1418.393555 0.684375)"/>
     <use xlink:href="#DejaVuSans-74" transform="translate(1481.772461 0.684375)"/>
     <use xlink:href="#DejaVuSans-65" transform="translate(1520.981445 0.684375)"/>
     <use xlink:href="#DejaVuSans-2e" transform="translate(1582.504883 0.684375)"/>
     <use xlink:href="#DejaVuSans-63" transform="translate(1614.291992 0.684375)"/>
     <use xlink:href="#DejaVuSans-6f" transform="translate(1669.272461 0.684375)"/>
     <use xlink:href="#DejaVuSans-6d" transform="translate(1730.454102 0.684375)"/>
     <use xlink:href="#DejaVuSans-2f" transform="translate(1827.866211 0.684375)"/>
     <use xlink:href="#DejaVuSans-67" transform="translate(1861.557617 0.684375)"/>
     <use xlink:href="#DejaVuSans-6c" transform="translate(1925.03418 0.684375)"/>
     <use xlink:href="#DejaVuSans-6f" transform="translate(1952.817383 0.684375)"/>
     <use xlink:href="#DejaVuSans-62" transform="translate(2013.999023 0.684375)"/>
     <use xlink:href="#DejaVuSans-61" transform="translate(2077.475586 0.684375)"/>
     <use xlink:href="#DejaVuSans-6c" transform="translate(2138.754883 0.684375)"/>
     <use xlink:href="#DejaVuSans-2d" transform="translate(2166.538086 0.684375)"/>
     <use xlink:href="#DejaVuSans-70" transform="translate(2202.62207 0.684375)"/>
     <use xlink:href="#DejaVuSans-75" transform="translate(2266.098633 0.684375)"/>
     <use xlink:href="#DejaVuSans-65" transform="translate(2329.477539 0.684375)"/>
     <use xlink:href="#DejaVuSans-73" transform="translate(2391.000977 0.684375)"/>
     <use xlink:href="#DejaVuSans-2d" transform="translate(2443.100586 0.684375)"/>
     <use xlink:href="#DejaVuSans-61" transform="translate(2479.18457 0.684375)"/>
     <use xlink:href="#DejaVuSans-72" transform="translate(2540.463867 0.684375)"/>
     <use xlink:href="#DejaVuSans-65" transform="translate(2581.577148 0.684375)"/>
     <use xlink:href="#DejaVuSans-2d" transform="translate(2643.100586 0.684375)"/>
     <use xlink:href="#DejaVuSans-74" transform="translate(2679.18457 0.684375)"/>
     <use xlink:href="#DejaVuSans-68" transform="translate(2718.393555 0.684375)"/>
     <use xlink:href="#DejaVuSans-65" transform="translate(2781.772461 0.684375)"/>
     <use xlink:href="#DejaVuSans-79" transform="translate(2843.295898 0.684375)"/>
     <use xlink:href="#DejaVuSans-2d" transform="translate(2902.475586 0.684375)"/>
     <use xlink:href="#DejaVuSans-67" transform="translate(2938.55957 0.684375)"/>
     <use xlink:href="#DejaVuSans-6f" transform="translate(3002.036133 0.684375)"/>
     <use xlink:href="#DejaVuSans-69" transform="translate(3063.217773 0.684375)"/>
     <use xlink:href="#DejaVuSans-6e" transform="translate(3091.000977 0.684375)"/>
     <use xlink:href="#DejaVuSans-67" transform="translate(3154.379883 0.684375)"/>
     <use xlink:href="#DejaVuSans-2d" transform="translate(3217.856445 0.684375)"/>
     <use xlink:href="#DejaVuSans-61" transform="translate(3253.94043 0.684375)"/>
     <use xlink:href="#DejaVuSans-6e" transform="translate(3315.219727 0.684375)"/>
     <use xlink:href="#DejaVuSans-79" transform="translate(3378.598633 0.684375)"/>
     <use xlink:href="#DejaVuSans-77" transform="translate(3437.77832 0.684375)"/>
     <use xlink:href="#DejaVuSans-68" transform="translate(3519.56543 0.684375)"/>
     <use xlink:href="#DejaVuSans-65" transform="translate(3582.944336 0.684375)"/>
     <use xlink:href="#DejaVuSans-72" transform="translate(3644.467773 0.684375)"/>
     <use xlink:href="#DejaVuSans-65" transform="translate(3685.581055 0.684375)"/>
     <use xlink:href="#DejaVuSans-2f" transform="translate(3747.104492 0.684375)"/>
    </g>
   </g>
   <g id="text_23">
    <!-- $^2$ https://www.google.com/about/datacenters/efficiency/ -->
    <g transform="translate(7.2 468.160031) scale(0.1 -0.1)">
     <defs>
      <path id="DejaVuSans-64" d="M 2906 2969 
L 2906 4863 
L 3481 4863 
L 3481 0 
L 2906 0 
L 2906 525 
Q 2725 213 2448 61 
Q 2172 -91 1784 -91 
Q 1150 -91 751 415 
Q 353 922 353 1747 
Q 353 2572 751 3078 
Q 1150 3584 1784 3584 
Q 2172 3584 2448 3432 
Q 2725 3281 2906 2969 
z
M 947 1747 
Q 947 1113 1208 752 
Q 1469 391 1925 391 
Q 2381 391 2643 752 
Q 2906 1113 2906 1747 
Q 2906 2381 2643 2742 
Q 2381 3103 1925 3103 
Q 1469 3103 1208 2742 
Q 947 2381 947 1747 
z
" transform="scale(0.015625)"/>
      <path id="DejaVuSans-66" d="M 2375 4863 
L 2375 4384 
L 1825 4384 
Q 1516 4384 1395 4259 
Q 1275 4134 1275 3809 
L 1275 3500 
L 2222 3500 
L 2222 3053 
L 1275 3053 
L 1275 0 
L 697 0 
L 697 3053 
L 147 3053 
L 147 3500 
L 697 3500 
L 697 3744 
Q 697 4328 969 4595 
Q 1241 4863 1831 4863 
L 2375 4863 
z
" transform="scale(0.015625)"/>
     </defs>
     <use xlink:href="#DejaVuSans-32" transform="translate(0.957031 39.046875) scale(0.7)"/>
     <use xlink:href="#DejaVuSans-20" transform="translate(48.227539 0.765625)"/>
     <use xlink:href="#DejaVuSans-68" transform="translate(80.014648 0.765625)"/>
     <use xlink:href="#DejaVuSans-74" transform="translate(143.393555 0.765625)"/>
     <use xlink:href="#DejaVuSans-74" transform="translate(182.602539 0.765625)"/>
     <use xlink:href="#DejaVuSans-70" transform="translate(221.811523 0.765625)"/>
     <use xlink:href="#DejaVuSans-73" transform="translate(285.288086 0.765625)"/>
     <use xlink:href="#DejaVuSans-3a" transform="translate(337.387695 0.765625)"/>
     <use xlink:href="#DejaVuSans-2f" transform="translate(371.079102 0.765625)"/>
     <use xlink:href="#DejaVuSans-2f" transform="translate(404.770508 0.765625)"/>
     <use xlink:href="#DejaVuSans-77" transform="translate(438.461914 0.765625)"/>
     <use xlink:href="#DejaVuSans-77" transform="translate(520.249023 0.765625)"/>
     <use xlink:href="#DejaVuSans-77" transform="translate(602.036133 0.765625)"/>
     <use xlink:href="#DejaVuSans-2e" transform="translate(683.823242 0.765625)"/>
     <use xlink:href="#DejaVuSans-67" transform="translate(715.610352 0.765625)"/>
     <use xlink:href="#DejaVuSans-6f" transform="translate(779.086914 0.765625)"/>
     <use xlink:href="#DejaVuSans-6f" transform="translate(840.268555 0.765625)"/>
     <use xlink:href="#DejaVuSans-67" transform="translate(901.450195 0.765625)"/>
     <use xlink:href="#DejaVuSans-6c" transform="translate(964.926758 0.765625)"/>
     <use xlink:href="#DejaVuSans-65" transform="translate(992.709961 0.765625)"/>
     <use xlink:href="#DejaVuSans-2e" transform="translate(1054.233398 0.765625)"/>
     <use xlink:href="#DejaVuSans-63" transform="translate(1086.020508 0.765625)"/>
     <use xlink:href="#DejaVuSans-6f" transform="translate(1141.000977 0.765625)"/>
     <use xlink:href="#DejaVuSans-6d" transform="translate(1202.182617 0.765625)"/>
     <use xlink:href="#DejaVuSans-2f" transform="translate(1299.594727 0.765625)"/>
     <use xlink:href="#DejaVuSans-61" transform="translate(1333.286133 0.765625)"/>
     <use xlink:href="#DejaVuSans-62" transform="translate(1394.56543 0.765625)"/>
     <use xlink:href="#DejaVuSans-6f" transform="translate(1458.041992 0.765625)"/>
     <use xlink:href="#DejaVuSans-75" transform="translate(1519.223633 0.765625)"/>
     <use xlink:href="#DejaVuSans-74" transform="translate(1582.602539 0.765625)"/>
     <use xlink:href="#DejaVuSans-2f" transform="translate(1621.811523 0.765625)"/>
     <use xlink:href="#DejaVuSans-64" transform="translate(1655.50293 0.765625)"/>
     <use xlink:href="#DejaVuSans-61" transform="translate(1718.979492 0.765625)"/>
     <use xlink:href="#DejaVuSans-74" transform="translate(1780.258789 0.765625)"/>
     <use xlink:href="#DejaVuSans-61" transform="translate(1819.467773 0.765625)"/>
     <use xlink:href="#DejaVuSans-63" transform="translate(1880.74707 0.765625)"/>
     <use xlink:href="#DejaVuSans-65" transform="translate(1935.727539 0.765625)"/>
     <use xlink:href="#DejaVuSans-6e" transform="translate(1997.250977 0.765625)"/>
     <use xlink:href="#DejaVuSans-74" transform="translate(2060.629883 0.765625)"/>
     <use xlink:href="#DejaVuSans-65" transform="translate(2099.838867 0.765625)"/>
     <use xlink:href="#DejaVuSans-72" transform="translate(2161.362305 0.765625)"/>
     <use xlink:href="#DejaVuSans-73" transform="translate(2202.475586 0.765625)"/>
     <use xlink:href="#DejaVuSans-2f" transform="translate(2254.575195 0.765625)"/>
     <use xlink:href="#DejaVuSans-65" transform="translate(2288.266602 0.765625)"/>
     <use xlink:href="#DejaVuSans-66" transform="translate(2349.790039 0.765625)"/>
     <use xlink:href="#DejaVuSans-66" transform="translate(2384.995117 0.765625)"/>
     <use xlink:href="#DejaVuSans-69" transform="translate(2420.200195 0.765625)"/>
     <use xlink:href="#DejaVuSans-63" transform="translate(2447.983398 0.765625)"/>
     <use xlink:href="#DejaVuSans-69" transform="translate(2502.963867 0.765625)"/>
     <use xlink:href="#DejaVuSans-65" transform="translate(2530.74707 0.765625)"/>
     <use xlink:href="#DejaVuSans-6e" transform="translate(2592.270508 0.765625)"/>
     <use xlink:href="#DejaVuSans-63" transform="translate(2655.649414 0.765625)"/>
     <use xlink:href="#DejaVuSans-79" transform="translate(2710.629883 0.765625)"/>
     <use xlink:href="#DejaVuSans-2f" transform="translate(2769.80957 0.765625)"/>
    </g>
   </g>
   <g id="legend_1">
    <g id="patch_7">
     <path d="M 405.514 79.559062 
L 579.754 79.559062 
Q 582.154 79.559062 582.154 77.159062 
L 582.154 20.159062 
Q 582.154 17.759062 579.754 17.759062 
L 405.514 17.759062 
Q 403.114 17.759062 403.114 20.159062 
L 403.114 77.159062 
Q 403.114 79.559062 405.514 79.559062 
z
" style="fill: #ffffff; opacity: 0.8; stroke: #cccccc; stroke-linejoin: miter"/>
    </g>
    <g id="line2d_42">
     <path d="M 407.914 29.159062 
L 419.914 29.159062 
L 431.914 29.159062 
" style="fill: none; stroke: #0000ff; stroke-width: 1.5; stroke-linecap: square"/>
    </g>
    <g id="text_24">
     <!-- UpTime Institute$^1$ -->
     <g transform="translate(441.514 33.359062) scale(0.12 -0.12)">
      <defs>
       <path id="DejaVuSans-54" d="M -19 4666 
L 3928 4666 
L 3928 4134 
L 2272 4134 
L 2272 0 
L 1638 0 
L 1638 4134 
L -19 4134 
L -19 4666 
z
" transform="scale(0.015625)"/>
       <path id="DejaVuSans-49" d="M 628 4666 
L 1259 4666 
L 1259 0 
L 628 0 
L 628 4666 
z
" transform="scale(0.015625)"/>
      </defs>
      <use xlink:href="#DejaVuSans-55" transform="translate(0 0.684375)"/>
      <use xlink:href="#DejaVuSans-70" transform="translate(73.193359 0.684375)"/>
      <use xlink:href="#DejaVuSans-54" transform="translate(136.669922 0.684375)"/>
      <use xlink:href="#DejaVuSans-69" transform="translate(197.753906 0.684375)"/>
      <use xlink:href="#DejaVuSans-6d" transform="translate(225.537109 0.684375)"/>
      <use xlink:href="#DejaVuSans-65" transform="translate(322.949219 0.684375)"/>
      <use xlink:href="#DejaVuSans-20" transform="translate(384.472656 0.684375)"/>
      <use xlink:href="#DejaVuSans-49" transform="translate(416.259766 0.684375)"/>
      <use xlink:href="#DejaVuSans-6e" transform="translate(445.751953 0.684375)"/>
      <use xlink:href="#DejaVuSans-73" transform="translate(509.130859 0.684375)"/>
      <use xlink:href="#DejaVuSans-74" transform="translate(561.230469 0.684375)"/>
      <use xlink:href="#DejaVuSans-69" transform="translate(600.439453 0.684375)"/>
      <use xlink:href="#DejaVuSans-74" transform="translate(628.222656 0.684375)"/>
      <use xlink:href="#DejaVuSans-75" transform="translate(667.431641 0.684375)"/>
      <use xlink:href="#DejaVuSans-74" transform="translate(730.810547 0.684375)"/>
      <use xlink:href="#DejaVuSans-65" transform="translate(770.019531 0.684375)"/>
      <use xlink:href="#DejaVuSans-31" transform="translate(832.5 38.965625) scale(0.7)"/>
     </g>
    </g>
    <g id="line2d_43">
     <path d="M 407.914 48.599062 
L 419.914 48.599062 
L 431.914 48.599062 
" style="fill: none; stroke: #ff0000; stroke-width: 1.5; stroke-linecap: square"/>
    </g>
    <g id="text_25">
     <!-- Google 12 month avg$^2$ -->
     <g transform="translate(441.514 52.799062) scale(0.12 -0.12)">
      <defs>
       <path id="DejaVuSans-47" d="M 3809 666 
L 3809 1919 
L 2778 1919 
L 2778 2438 
L 4434 2438 
L 4434 434 
Q 4069 175 3628 42 
Q 3188 -91 2688 -91 
Q 1594 -91 976 548 
Q 359 1188 359 2328 
Q 359 3472 976 4111 
Q 1594 4750 2688 4750 
Q 3144 4750 3555 4637 
Q 3966 4525 4313 4306 
L 4313 3634 
Q 3963 3931 3569 4081 
Q 3175 4231 2741 4231 
Q 1884 4231 1454 3753 
Q 1025 3275 1025 2328 
Q 1025 1384 1454 906 
Q 1884 428 2741 428 
Q 3075 428 3337 486 
Q 3600 544 3809 666 
z
" transform="scale(0.015625)"/>
       <path id="DejaVuSans-76" d="M 191 3500 
L 800 3500 
L 1894 563 
L 2988 3500 
L 3597 3500 
L 2284 0 
L 1503 0 
L 191 3500 
z
" transform="scale(0.015625)"/>
      </defs>
      <use xlink:href="#DejaVuSans-47" transform="translate(0 0.765625)"/>
      <use xlink:href="#DejaVuSans-6f" transform="translate(77.490234 0.765625)"/>
      <use xlink:href="#DejaVuSans-6f" transform="translate(138.671875 0.765625)"/>
      <use xlink:href="#DejaVuSans-67" transform="translate(199.853516 0.765625)"/>
      <use xlink:href="#DejaVuSans-6c" transform="translate(263.330078 0.765625)"/>
      <use xlink:href="#DejaVuSans-65" transform="translate(291.113281 0.765625)"/>
      <use xlink:href="#DejaVuSans-20" transform="translate(352.636719 0.765625)"/>
      <use xlink:href="#DejaVuSans-31" transform="translate(384.423828 0.765625)"/>
      <use xlink:href="#DejaVuSans-32" transform="translate(448.046875 0.765625)"/>
      <use xlink:href="#DejaVuSans-20" transform="translate(511.669922 0.765625)"/>
      <use xlink:href="#DejaVuSans-6d" transform="translate(543.457031 0.765625)"/>
      <use xlink:href="#DejaVuSans-6f" transform="translate(640.869141 0.765625)"/>
      <use xlink:href="#DejaVuSans-6e" transform="translate(702.050781 0.765625)"/>
      <use xlink:href="#DejaVuSans-74" transform="translate(765.429688 0.765625)"/>
      <use xlink:href="#DejaVuSans-68" transform="translate(804.638672 0.765625)"/>
      <use xlink:href="#DejaVuSans-20" transform="translate(868.017578 0.765625)"/>
      <use xlink:href="#DejaVuSans-61" transform="translate(899.804688 0.765625)"/>
      <use xlink:href="#DejaVuSans-76" transform="translate(961.083984 0.765625)"/>
      <use xlink:href="#DejaVuSans-67" transform="translate(1020.263672 0.765625)"/>
      <use xlink:href="#DejaVuSans-32" transform="translate(1084.697266 39.046875) scale(0.7)"/>
     </g>
    </g>
    <g id="line2d_44">
     <path d="M 407.914 68.039062 
L 419.914 68.039062 
L 431.914 68.039062 
" style="fill: none; stroke: #ff0000; stroke-opacity: 0.3; stroke-width: 1.5; stroke-linecap: square"/>
    </g>
    <g id="text_26">
     <!-- Google quartely$^2$ -->
     <g transform="translate(441.514 72.239062) scale(0.12 -0.12)">
      <defs>
       <path id="DejaVuSans-71" d="M 947 1747 
Q 947 1113 1208 752 
Q 1469 391 1925 391 
Q 2381 391 2643 752 
Q 2906 1113 2906 1747 
Q 2906 2381 2643 2742 
Q 2381 3103 1925 3103 
Q 1469 3103 1208 2742 
Q 947 2381 947 1747 
z
M 2906 525 
Q 2725 213 2448 61 
Q 2172 -91 1784 -91 
Q 1150 -91 751 415 
Q 353 922 353 1747 
Q 353 2572 751 3078 
Q 1150 3584 1784 3584 
Q 2172 3584 2448 3432 
Q 2725 3281 2906 2969 
L 2906 3500 
L 3481 3500 
L 3481 -1331 
L 2906 -1331 
L 2906 525 
z
" transform="scale(0.015625)"/>
      </defs>
      <use xlink:href="#DejaVuSans-47" transform="translate(0 0.765625)"/>
      <use xlink:href="#DejaVuSans-6f" transform="translate(77.490234 0.765625)"/>
      <use xlink:href="#DejaVuSans-6f" transform="translate(138.671875 0.765625)"/>
      <use xlink:href="#DejaVuSans-67" transform="translate(199.853516 0.765625)"/>
      <use xlink:href="#DejaVuSans-6c" transform="translate(263.330078 0.765625)"/>
      <use xlink:href="#DejaVuSans-65" transform="translate(291.113281 0.765625)"/>
      <use xlink:href="#DejaVuSans-20" transform="translate(352.636719 0.765625)"/>
      <use xlink:href="#DejaVuSans-71" transform="translate(384.423828 0.765625)"/>
      <use xlink:href="#DejaVuSans-75" transform="translate(447.900391 0.765625)"/>
      <use xlink:href="#DejaVuSans-61" transform="translate(511.279297 0.765625)"/>
      <use xlink:href="#DejaVuSans-72" transform="translate(572.558594 0.765625)"/>
      <use xlink:href="#DejaVuSans-74" transform="translate(613.671875 0.765625)"/>
      <use xlink:href="#DejaVuSans-65" transform="translate(652.880859 0.765625)"/>
      <use xlink:href="#DejaVuSans-6c" transform="translate(714.404297 0.765625)"/>
      <use xlink:href="#DejaVuSans-79" transform="translate(742.1875 0.765625)"/>
      <use xlink:href="#DejaVuSans-32" transform="translate(802.324219 39.046875) scale(0.7)"/>
     </g>
    </g>
   </g>
  </g>
 </g>
 <defs>
  <clipPath id="pad8e8b8911">
   <rect x="60.014" y="11.759062" width="528.14" height="365.120774"/>
  </clipPath>
 </defs>
</svg>
