<?xml version="1.0" encoding="UTF-8" standalone="no"?>
<!-- Created with Inkscape (http://www.inkscape.org/) -->

<svg
   width="131.91928mm"
   height="23.707123mm"
   viewBox="0 0 131.91928 23.707123"
   version="1.1"
   id="svg1"
   xml:space="preserve"
   inkscape:version="1.3.1 (9b9bdc1480, 2023-11-25, custom)"
   sodipodi:docname="combinedlogo.svg"
   inkscape:export-filename="nlesc-surf.svg"
   inkscape:export-xdpi="96"
   inkscape:export-ydpi="96"
   xmlns:inkscape="http://www.inkscape.org/namespaces/inkscape"
   xmlns:sodipodi="http://sodipodi.sourceforge.net/DTD/sodipodi-0.dtd"
   xmlns="http://www.w3.org/2000/svg"
   xmlns:svg="http://www.w3.org/2000/svg"><sodipodi:namedview
     id="namedview1"
     pagecolor="#ffffff"
     bordercolor="#000000"
     borderopacity="0.25"
     inkscape:showpageshadow="2"
     inkscape:pageopacity="0.0"
     inkscape:pagecheckerboard="0"
     inkscape:deskcolor="#d1d1d1"
     inkscape:document-units="mm"
     inkscape:zoom="1.6819304"
     inkscape:cx="257.44228"
     inkscape:cy="243.76752"
     inkscape:window-width="1916"
     inkscape:window-height="1143"
     inkscape:window-x="0"
     inkscape:window-y="0"
     inkscape:window-maximized="1"
     inkscape:current-layer="layer1"
     showgrid="false" /><defs
     id="defs1"><style
       id="style1">.cls-1{fill:#1d1d1b;}.cls-2{fill:#009fe1;}</style></defs><g
     inkscape:label="Layer 1"
     inkscape:groupmode="layer"
     id="layer1"
     transform="translate(-4.5667983,-51.819838)"><g
       id="g1"
       transform="matrix(0.44054855,0,0,0.44054855,92.431212,52.618017)"><path
         id="a_1_"
         d="m 92.4,31.4 c 4.2,0 7.6,3.5 7.6,7.8 v 5 c 0,4.3 -3.4,7.8 -7.6,7.8 H 80.9 c -4.2,0 -7.6,-3.5 -7.6,-7.8 v -3.1 c 0,-5.4 -4.3,-9.7 -9.5,-9.7 H 9.5 C 4.2,31.4 0,27.1 0,21.7 V 9.7 C 0,4.3 4.3,0 9.5,0 h 54.3 c 5.3,0 9.5,4.3 9.5,9.7 v 12 c 0,5.4 4.3,9.7 9.5,9.7 z" /><path
         d="m 60.6,17.8 c 1,0 1.5,-0.5 1.5,-1.5 0,-1 -0.5,-1.6 -1.5,-1.6 h -3.8 v -3 h 6 c 1,0 1.5,-0.5 1.5,-1.6 0,-1 -0.5,-1.5 -1.5,-1.5 h -7.6 c -1,0 -1.6,0.5 -1.6,1.6 v 11 c 0,1.1 0.5,1.6 1.6,1.6 1,0 1.6,-0.5 1.6,-1.6 v -3.5 c 0,0.1 3.8,0.1 3.8,0.1 z M 48.1,17.5 c 1.4,-0.7 2.2,-2.1 2.2,-3.9 0,-2.9 -2.1,-5 -5.1,-5 h -4.5 c -1,0 -1.6,0.5 -1.6,1.6 v 11 c 0,1.1 0.5,1.6 1.6,1.6 1,0 1.6,-0.5 1.6,-1.6 V 18.3 H 45 l 1.6,3.4 c 0.3,0.7 0.7,1 1.3,1 0.8,0 1.8,-0.6 1.8,-1.5 0,-0.3 -0.1,-0.6 -0.2,-0.9 z m -3.3,-2 h -2.7 v -3.8 h 2.7 c 1.2,0 2.2,0.6 2.2,1.9 0,1.3 -1,1.9 -2.2,1.9 z m -12.7,0.8 c 0,2.2 -1.3,3.5 -3.1,3.5 -1.8,0 -3.1,-1.3 -3.1,-3.5 v -6.2 c 0,-1.1 -0.5,-1.6 -1.6,-1.6 -1,0 -1.6,0.5 -1.6,1.6 v 6.2 c 0,4.1 2.7,6.7 6.3,6.7 3.6,0 6.3,-2.6 6.3,-6.7 v -6.2 c 0,-1.1 -0.5,-1.6 -1.6,-1.6 -1,0 -1.6,0.5 -1.6,1.6 z M 14.2,20 C 13,20 12.1,19.7 11.5,19.5 11,19.3 10.6,19.2 10.1,19.2 c -0.9,0 -1.4,0.6 -1.4,1.5 0,1.5 3,2.3 5.6,2.3 3.1,0 5.5,-1.7 5.5,-4.3 0,-2.4 -1.6,-3.5 -3.3,-4.1 l -2.6,-0.8 c -1.1,-0.3 -1.6,-0.6 -1.6,-1.3 0,-0.7 1.1,-1.1 2,-1.1 1.1,0 1.9,0.3 2.5,0.5 0.4,0.1 0.8,0.3 1.3,0.3 0.8,0 1.3,-0.6 1.3,-1.5 0,-1.5 -2.7,-2.3 -5.1,-2.3 -3,0 -5.2,1.7 -5.2,4.2 0,2.1 1.5,3.3 3.1,3.8 l 2.3,0.7 c 1.2,0.4 2.1,0.7 2.1,1.4 -0.2,1 -1.4,1.5 -2.4,1.5 z"
         fill="#ffffff"
         id="path1" /></g><g
       id="g2"
       transform="matrix(0.11185245,0,0,0.11185245,4.5667984,51.819838)"><path
         class="cls-1"
         d="m 233.91,369.56 v -24.35 a 10.57,10.57 0 0 0 -1.93,-6.75 Q 230,336 225.5,336 a 7.84,7.84 0 0 0 -4.93,1.63 11.64,11.64 0 0 0 -3.41,4.28 13.77,13.77 0 0 0 -1.18,4.86 c -0.13,1.82 -0.19,3.46 -0.19,4.93 v 17.82 h -6.45 V 331.18 H 215 l 0.53,5.77 a 9.37,9.37 0 0 1 2,-2.92 12.18,12.18 0 0 1 2.89,-2.09 16.4,16.4 0 0 1 3.33,-1.29 13.43,13.43 0 0 1 3.34,-0.45 q 6.6,0 9.93,3.71 3.33,3.71 3.34,10.39 v 25.26 z"
         transform="translate(-209.34,-314.8)"
         id="path1-6" /><path
         class="cls-1"
         d="m 284.65,348.32 v 2.09 c 0,0.68 0,1.38 -0.08,2.08 h -27.15 a 14.77,14.77 0 0 0 1,5.27 11.83,11.83 0 0 0 2.73,4.36 9.54,9.54 0 0 0 7.05,2.73 q 4.69,0 7.13,-2.5 a 8.66,8.66 0 0 0 1.36,-1.74 9.18,9.18 0 0 0 0.91,-2.43 h 6.3 a 13.27,13.27 0 0 1 -2,5.39 14,14 0 0 1 -3.95,4.09 16.8,16.8 0 0 1 -4.55,2.12 17.79,17.79 0 0 1 -5.23,0.76 16.74,16.74 0 0 1 -7.32,-1.55 16,16 0 0 1 -5.42,-4.21 18.18,18.18 0 0 1 -3.6,-6.49 25.16,25.16 0 0 1 -1.18,-7.77 29.93,29.93 0 0 1 0.69,-6.56 19,19 0 0 1 2.27,-5.72 16.65,16.65 0 0 1 5.76,-5.77 16.45,16.45 0 0 1 8.72,-2.27 15.81,15.81 0 0 1 6.64,1.33 15.48,15.48 0 0 1 5,3.6 18.32,18.32 0 0 1 3.57,5.91 20.43,20.43 0 0 1 1.35,7.28 z m -6.6,-1.36 a 14.71,14.71 0 0 0 -0.61,-4.25 11,11 0 0 0 -1.74,-3.56 8.71,8.71 0 0 0 -3.11,-2.54 9.83,9.83 0 0 0 -4.48,-0.95 10,10 0 0 0 -4.58,1 10.25,10.25 0 0 0 -3.26,2.58 10.65,10.65 0 0 0 -2,3.6 15.24,15.24 0 0 0 -0.72,4.14 z"
         transform="translate(-209.34,-314.8)"
         id="path2" /><path
         class="cls-1"
         d="m 315,369 a 30.11,30.11 0 0 1 -3.15,0.73 26.16,26.16 0 0 1 -4.51,0.34 12.8,12.8 0 0 1 -5.15,-0.91 8.62,8.62 0 0 1 -3.23,-2.35 8.73,8.73 0 0 1 -1.67,-3.3 14.84,14.84 0 0 1 -0.49,-3.83 v -23 h -7.43 v -5.54 h 7.43 v -9.74 l 6.45,-1.52 v 11.3 h 11.35 v 5.54 h -11.37 v 22.22 a 4.45,4.45 0 0 0 5.15,5.23 c 0.71,0 1.44,0 2.2,-0.07 0.76,-0.07 1.47,-0.13 2.13,-0.23 0.66,-0.1 1.51,-0.23 2.27,-0.38 z"
         transform="translate(-209.34,-314.8)"
         id="path3" /><path
         class="cls-1"
         d="m 348.88,369.56 v -24.35 a 10.57,10.57 0 0 0 -1.94,-6.75 Q 345,336 340.46,336 a 7.86,7.86 0 0 0 -4.93,1.63 11.84,11.84 0 0 0 -3.41,4.28 13.77,13.77 0 0 0 -1.18,4.86 c -0.12,1.82 -0.19,3.46 -0.19,4.93 v 17.82 h -6.44 V 314.8 h 6.44 v 21.47 a 11.47,11.47 0 0 1 4.86,-4.52 14.14,14.14 0 0 1 6.39,-1.55 q 6.6,0 10,3.71 3.4,3.71 3.37,10.39 v 25.26 z"
         transform="translate(-209.34,-314.8)"
         id="path4" /><path
         class="cls-1"
         d="m 399.76,348.32 v 2.09 c 0,0.68 0,1.38 -0.08,2.08 h -27.14 a 14.76,14.76 0 0 0 1,5.27 12.09,12.09 0 0 0 2.73,4.36 9.55,9.55 0 0 0 7.06,2.73 q 4.69,0 7.12,-2.5 a 8.72,8.72 0 0 0 1.37,-1.74 9.94,9.94 0 0 0 0.91,-2.43 H 399 a 13.13,13.13 0 0 1 -2,5.39 14,14 0 0 1 -3.94,4.09 16.94,16.94 0 0 1 -4.55,2.12 17.79,17.79 0 0 1 -5.23,0.76 16.74,16.74 0 0 1 -7.28,-1.54 16,16 0 0 1 -5.43,-4.21 18.49,18.49 0 0 1 -3.6,-6.49 25.46,25.46 0 0 1 -1.17,-7.77 29.94,29.94 0 0 1 0.68,-6.56 19,19 0 0 1 2.27,-5.72 16.6,16.6 0 0 1 5.77,-5.77 16.4,16.4 0 0 1 8.72,-2.27 15.5,15.5 0 0 1 11.68,4.93 18.47,18.47 0 0 1 3.56,5.91 20.43,20.43 0 0 1 1.28,7.27 z m -6.6,-1.36 a 15.05,15.05 0 0 0 -0.6,-4.25 11.27,11.27 0 0 0 -1.75,-3.56 8.62,8.62 0 0 0 -3.11,-2.54 9.76,9.76 0 0 0 -4.47,-0.95 10.09,10.09 0 0 0 -4.59,1 10.25,10.25 0 0 0 -3.26,2.58 10.8,10.8 0 0 0 -2,3.6 15.24,15.24 0 0 0 -0.72,4.14 z"
         transform="translate(-209.34,-314.8)"
         id="path5" /><path
         class="cls-1"
         d="m 431.31,337.48 c -0.56,-0.1 -1.15,-0.18 -1.78,-0.23 -0.63,-0.05 -1.23,-0.08 -1.79,-0.08 a 9.64,9.64 0 0 0 -4.13,0.88 11,11 0 0 0 -3.15,2.16 9.66,9.66 0 0 0 -1.85,2.61 13,13 0 0 0 -1.07,3.15 25.5,25.5 0 0 0 -0.45,3.34 c -0.08,1.11 -0.11,2.17 -0.11,3.18 v 17.07 h -6.37 v -38.38 h 5.68 l 0.53,6.75 a 10.43,10.43 0 0 1 4.67,-5.27 14.07,14.07 0 0 1 6.78,-1.7 20.73,20.73 0 0 1 3,0.22 z"
         transform="translate(-209.34,-314.8)"
         id="path6" /><path
         class="cls-1"
         d="m 452.08,369.56 a 5.65,5.65 0 0 1 -1.13,0.22 19,19 0 0 1 -3.42,0.23 c -2.83,0 -4.87,-0.81 -6.14,-2.43 -1.27,-1.62 -1.89,-3.94 -1.89,-7 V 314.8 h 6.44 v 45.43 a 4.8,4.8 0 0 0 0.76,3 3.26,3.26 0 0 0 2.73,1 h 2.12 a 1.7,1.7 0 0 0 0.53,-0.07 z"
         transform="translate(-209.34,-314.8)"
         id="path7" /><path
         class="cls-1"
         d="m 493.94,369.18 a 8.2,8.2 0 0 1 -2,0.72 12.35,12.35 0 0 1 -2.2,0.19 5.09,5.09 0 0 1 -4.06,-1.71 6.07,6.07 0 0 1 -1.48,-4.13 H 484 a 11.86,11.86 0 0 1 -5,4.59 15.93,15.93 0 0 1 -7.39,1.7 15.07,15.07 0 0 1 -5.8,-1 12.13,12.13 0 0 1 -4.1,-2.69 11.35,11.35 0 0 1 -2.46,-3.8 11.61,11.61 0 0 1 -0.84,-4.32 13,13 0 0 1 0.65,-3.87 9.72,9.72 0 0 1 2.24,-3.75 13.32,13.32 0 0 1 4.2,-2.92 18.09,18.09 0 0 1 6.56,-1.44 l 11.68,-0.68 v -2.81 a 14.28,14.28 0 0 0 -0.34,-3 5.37,5.37 0 0 0 -1.63,-2.81 7.4,7.4 0 0 0 -2.46,-1.44 11.69,11.69 0 0 0 -3.83,-0.53 12.23,12.23 0 0 0 -4.33,0.65 7.53,7.53 0 0 0 -2.65,1.63 6.29,6.29 0 0 0 -1.9,4.62 h -6.29 a 12,12 0 0 1 0.95,-4.59 11.49,11.49 0 0 1 2.39,-3.45 12.17,12.17 0 0 1 5.12,-3.07 21.57,21.57 0 0 1 6.71,-1 c 3.74,0 6.69,0.69 8.87,2.08 a 11.72,11.72 0 0 1 4.62,5.27 14.88,14.88 0 0 1 1.14,5.92 v 18.58 a 2.81,2.81 0 0 0 0.57,2.05 2.22,2.22 0 0 0 1.56,0.53 h 0.53 a 1.69,1.69 0 0 0 0.53,-0.08 l 0.6,-0.15 z m -10.16,-18.13 -10.31,0.61 a 14.4,14.4 0 0 0 -3,0.49 9.4,9.4 0 0 0 -2.73,1.22 6.14,6.14 0 0 0 -2,2.08 6,6 0 0 0 -0.76,3.11 6.78,6.78 0 0 0 1.75,4.59 q 1.74,2 5.83,2 a 12.36,12.36 0 0 0 4.29,-0.76 9.34,9.34 0 0 0 3.6,-2.35 10.09,10.09 0 0 0 2.5,-4 14.64,14.64 0 0 0 0.76,-4.7 z"
         transform="translate(-209.34,-314.8)"
         id="path8" /><path
         class="cls-1"
         d="m 528.75,369.56 v -24.35 a 10.57,10.57 0 0 0 -1.93,-6.75 q -1.94,-2.41 -6.49,-2.42 a 7.86,7.86 0 0 0 -4.93,1.63 11.84,11.84 0 0 0 -3.4,4.33 13.56,13.56 0 0 0 -1.17,4.86 c -0.13,1.82 -0.19,3.46 -0.19,4.93 v 17.82 h -6.45 v -38.43 h 5.61 l 0.53,5.77 a 9.57,9.57 0 0 1 2.05,-2.92 12.33,12.33 0 0 1 2.88,-2.09 16.49,16.49 0 0 1 3.34,-1.29 13.31,13.31 0 0 1 3.34,-0.45 q 6.59,0 9.93,3.71 3.34,3.71 3.34,10.39 v 25.26 z"
         transform="translate(-209.34,-314.8)"
         id="path9" /><path
         class="cls-1"
         d="m 573.87,369.56 -0.45,-5 a 11.07,11.07 0 0 1 -4.93,4.44 15.16,15.16 0 0 1 -6.53,1.55 16.49,16.49 0 0 1 -6.25,-1.1 13,13 0 0 1 -4.59,-3.07 18,18 0 0 1 -4.13,-7 27.73,27.73 0 0 1 -1.41,-8.94 28.41,28.41 0 0 1 1.48,-9.29 17.85,17.85 0 0 1 4.36,-7.09 14.77,14.77 0 0 1 4.52,-2.81 15.85,15.85 0 0 1 6,-1.06 13.83,13.83 0 0 1 3.23,0.38 16.58,16.58 0 0 1 3.14,1.06 11.67,11.67 0 0 1 2.77,1.71 8.41,8.41 0 0 1 2,2.31 V 314.8 h 6.45 v 54.76 z m -0.38,-19.19 a 25,25 0 0 0 -0.91,-6.86 10.9,10.9 0 0 0 -3.34,-5.35 10.47,10.47 0 0 0 -2.61,-1.78 8.19,8.19 0 0 0 -3.6,-0.72 10,10 0 0 0 -5.31,1.29 9.41,9.41 0 0 0 -3.34,3.41 15.21,15.21 0 0 0 -1.71,4.74 28.58,28.58 0 0 0 0,10.54 15.12,15.12 0 0 0 1.71,4.74 9.33,9.33 0 0 0 3.34,3.41 10,10 0 0 0 5.31,1.29 8.19,8.19 0 0 0 3.6,-0.72 10.47,10.47 0 0 0 2.61,-1.78 10.9,10.9 0 0 0 3.34,-5.35 25,25 0 0 0 0.91,-6.86 z"
         transform="translate(-209.34,-314.8)"
         id="path10" /><path
         class="cls-1"
         d="m 622.1,358.41 a 11.15,11.15 0 0 1 -0.83,4.43 11.54,11.54 0 0 1 -2.2,3.38 12.75,12.75 0 0 1 -5.46,3.3 24.95,24.95 0 0 1 -13.88,0.07 13.05,13.05 0 0 1 -5.61,-3.37 12.52,12.52 0 0 1 -2.73,-4.06 11.92,11.92 0 0 1 -1,-4.74 h 6.45 a 7.41,7.41 0 0 0 0.91,3.45 8.23,8.23 0 0 0 2.2,2.54 7.56,7.56 0 0 0 3.18,1.37 19.09,19.09 0 0 0 3.72,0.38 16.33,16.33 0 0 0 3.75,-0.42 7.81,7.81 0 0 0 3.3,-1.71 4.26,4.26 0 0 0 1.36,-1.74 5.61,5.61 0 0 0 0.54,-2.43 4.82,4.82 0 0 0 -1.52,-3.64 7.81,7.81 0 0 0 -4.47,-1.82 l -1.67,-0.22 c -0.71,-0.1 -1.47,-0.21 -2.28,-0.31 l -2.46,-0.3 c -0.84,-0.1 -1.58,-0.2 -2.24,-0.3 a 11.86,11.86 0 0 1 -6.86,-3.3 9.62,9.62 0 0 1 -2.54,-7 9.8,9.8 0 0 1 0.94,-4.21 11.74,11.74 0 0 1 2.24,-3.29 13.08,13.08 0 0 1 4.78,-3.11 17.58,17.58 0 0 1 6.52,-1.14 19.61,19.61 0 0 1 7,1.21 12,12 0 0 1 5.16,3.64 12.23,12.23 0 0 1 2,3.26 10.73,10.73 0 0 1 0.72,4.1 h -6.45 a 6.68,6.68 0 0 0 -0.72,-2.77 7.26,7.26 0 0 0 -1.47,-2 9.12,9.12 0 0 0 -6.3,-2.05 c -0.76,0 -1.47,0 -2.12,0.08 a 7.45,7.45 0 0 0 -2.35,0.68 6.62,6.62 0 0 0 -2.85,2.16 5,5 0 0 0 -1,3 4.24,4.24 0 0 0 1.36,3.52 7.84,7.84 0 0 0 3.8,1.48 c 1.06,0.15 2.35,0.32 3.86,0.5 1.51,0.18 3.31,0.44 5.39,0.79 a 12.63,12.63 0 0 1 6.94,3.49 9.61,9.61 0 0 1 2.89,7.1 z"
         transform="translate(-209.34,-314.8)"
         id="path11" /><path
         class="cls-1"
         d="m 703,478.78 a 27.66,27.66 0 0 1 -1.42,7.15 20.76,20.76 0 0 1 -3.31,6.21 26.53,26.53 0 0 1 -21,9.69 27,27 0 0 1 -12.65,-2.89 27.51,27.51 0 0 1 -8.75,-6.8 29.43,29.43 0 0 1 -5.09,-10.05 47.53,47.53 0 0 1 0,-24.83 29.62,29.62 0 0 1 5.09,-10.05 27.49,27.49 0 0 1 8.75,-6.79 27,27 0 0 1 12.65,-2.9 26.25,26.25 0 0 1 12.47,2.84 26.62,26.62 0 0 1 8.57,6.85 21,21 0 0 1 3.31,6.21 27.82,27.82 0 0 1 1.42,7.15 h -14.56 a 12.86,12.86 0 0 0 -0.59,-3.07 13.44,13.44 0 0 0 -1.18,-2.6 10,10 0 0 0 -3.67,-3.31 13.56,13.56 0 0 0 -11,-0.24 12.47,12.47 0 0 0 -3.73,2.72 13.73,13.73 0 0 0 -3.43,7.1 50.55,50.55 0 0 0 -0.71,8.51 49.49,49.49 0 0 0 0.71,8.45 13.7,13.7 0 0 0 3.43,7 13.15,13.15 0 0 0 3.73,2.77 11.35,11.35 0 0 0 5.26,1.13 12,12 0 0 0 5.79,-1.3 10,10 0 0 0 3.67,-3.31 13.72,13.72 0 0 0 1.18,-2.6 12.84,12.84 0 0 0 0.59,-3.08 z"
         transform="translate(-209.34,-314.8)"
         id="path12" /><path
         class="cls-1"
         d="m 812.38,500.54 v -37.72 q 0,-5.43 -2.13,-8.51 -2.13,-3.08 -8,-3.08 a 9.74,9.74 0 0 0 -6.5,2.19 15.57,15.57 0 0 0 -4.14,5.62 22.36,22.36 0 0 0 -1.77,8 q -0.24,4.55 -0.24,8.45 v 25.07 h -14.82 v -61.5 h 12.42 l 1.06,7.92 a 16.54,16.54 0 0 1 7.75,-7.15 24.48,24.48 0 0 1 10.34,-2.31 22,22 0 0 1 8.81,1.66 18.73,18.73 0 0 1 6.5,4.55 19.84,19.84 0 0 1 4.08,7 26.55,26.55 0 0 1 1.42,8.81 v 41 z"
         transform="translate(-209.34,-314.8)"
         id="path13" /><path
         class="cls-1"
         d="m 875.51,499.71 a 50.35,50.35 0 0 1 -12.65,1.65 q -9.35,0 -14,-5 -4.65,-5 -4.61,-13.89 v -31.24 h -11.18 v -12.17 h 11.23 v -15.61 l 14.78,-3.66 v 19.27 h 15.49 v 12.17 h -15.49 v 29.92 q 0,3.54 1.65,5.14 c 1.11,1.06 2.84,1.6 5.21,1.6 1.57,0 3,0 4.43,-0.12 1.43,-0.12 3.09,-0.24 5.14,-0.48 z"
         transform="translate(-209.34,-314.8)"
         id="path14" /><path
         class="cls-1"
         d="m 980.85,452.77 a 24.26,24.26 0 0 0 -5.08,-0.59 q -7.8,0 -11.83,5 a 19.12,19.12 0 0 0 -4,12.41 v 31 H 945 v -61.53 h 12.53 l 1.3,9.22 a 13.91,13.91 0 0 1 7,-7.69 23.58,23.58 0 0 1 10.34,-2.36 31.94,31.94 0 0 1 4.61,0.35 z"
         transform="translate(-209.34,-314.8)"
         id="path15" /><path
         class="cls-2"
         d="m 218.92,452.89 a 10.65,10.65 0 0 0 -3.84,-2.6 14.48,14.48 0 0 0 -5.5,-1 h -0.24 v 14.3 h 13.36 c -0.07,-4.43 -1.34,-8.02 -3.78,-10.7 z"
         transform="translate(-209.34,-314.8)"
         id="path16" /><path
         class="cls-2"
         d="m 440.8,450.29 a 14.48,14.48 0 0 0 -5.5,-1 13.38,13.38 0 0 0 -6,1.3 12.26,12.26 0 0 0 -4.26,3.43 12.69,12.69 0 0 0 -2.36,4.26 20.13,20.13 0 0 0 -0.83,5.32 h 26.6 q -0.12,-6.73 -3.78,-10.76 a 10.83,10.83 0 0 0 -3.87,-2.55 z"
         transform="translate(-209.34,-314.8)"
         id="path17" /><path
         class="cls-2"
         d="m 612.05,454.07 a 12.69,12.69 0 0 0 -2.36,4.26 20.13,20.13 0 0 0 -0.83,5.32 h 13.24 v -14.3 a 13.27,13.27 0 0 0 -5.79,1.29 12.17,12.17 0 0 0 -4.26,3.43 z"
         transform="translate(-209.34,-314.8)"
         id="path18" /><path
         class="cls-2"
         d="m 610.1,481.15 a 13.3,13.3 0 0 0 3.37,5.32 17.11,17.11 0 0 0 3.84,2.66 11.2,11.2 0 0 0 4.79,1.1 V 474.41 H 609 a 20.16,20.16 0 0 0 1.1,6.74 z"
         transform="translate(-209.34,-314.8)"
         id="path19" /><path
         class="cls-2"
         d="m 611.76,500 a 29.52,29.52 0 0 1 -8.34,-5.49 29.83,29.83 0 0 1 -7,-10.76 38,38 0 0 1 -2.42,-13.83 41.87,41.87 0 0 1 2.19,-13.78 28.06,28.06 0 0 1 6.68,-10.82 25.71,25.71 0 0 1 8.33,-5.67 28,28 0 0 1 10.94,-2.11 v -13.19 a 25.49,25.49 0 0 0 -25.5,-25.5 h -387.3 v 38.69 h 0.36 a 29.68,29.68 0 0 1 12.77,2.78 23.25,23.25 0 0 1 9.69,8.57 27,27 0 0 1 4.38,10.35 62.26,62.26 0 0 1 0.93,10.32 v 4.87 h -28.13 v 15.82 h 0.48 a 18,18 0 0 0 5.26,-0.65 8.94,8.94 0 0 0 3.72,-2.31 11.32,11.32 0 0 0 3,-5.2 H 236 a 17,17 0 0 1 -1.84,6 26.41,26.41 0 0 1 -3.37,5.38 22.05,22.05 0 0 1 -9.34,6.62 32.46,32.46 0 0 1 -11.35,2 h -0.66 a 25.47,25.47 0 0 0 25.45,24.66 H 622.1 V 502 a 26.56,26.56 0 0 1 -10.34,-2 z m -303,-14.24 a 25,25 0 0 1 -5,7.33 27.36,27.36 0 0 1 -11.76,6.91 51.09,51.09 0 0 1 -14.72,2.07 46.45,46.45 0 0 1 -13.3,-1.95 29.82,29.82 0 0 1 -11.76,-6.68 27.85,27.85 0 0 1 -6.32,-8.44 24.55,24.55 0 0 1 -2.48,-11.05 H 259 a 13.47,13.47 0 0 0 1.24,5.73 15.94,15.94 0 0 0 3.14,4.55 13.25,13.25 0 0 0 6.56,3.61 33.61,33.61 0 0 0 15.78,-0.12 12.84,12.84 0 0 0 6.27,-3.49 16.79,16.79 0 0 0 2.36,-3.25 10,10 0 0 0 0.95,-4.79 q 0,-4.6 -3,-6.92 a 15.91,15.91 0 0 0 -6.91,-3 76.4,76.4 0 0 0 -9.34,-1.18 91.83,91.83 0 0 1 -9.22,-1.07 31.5,31.5 0 0 1 -8.22,-2.48 23.16,23.16 0 0 1 -6.74,-4.67 21.57,21.57 0 0 1 -4.61,-7 23.86,23.86 0 0 1 -1.71,-9.29 20.41,20.41 0 0 1 2,-9.1 27.16,27.16 0 0 1 5.32,-7.45 28.52,28.52 0 0 1 10.64,-6.5 40.38,40.38 0 0 1 14,-2.36 40.91,40.91 0 0 1 12.94,2.06 28,28 0 0 1 10.47,6.09 29.32,29.32 0 0 1 6.08,8 22.3,22.3 0 0 1 2.43,9.82 h -15.65 a 12.12,12.12 0 0 0 -1.12,-4.44 14.66,14.66 0 0 0 -2.54,-3.84 13.26,13.26 0 0 0 -5.68,-3.31 23,23 0 0 0 -7.09,-1.18 29.43,29.43 0 0 0 -7.27,0.94 13.07,13.07 0 0 0 -6.33,3.67 11.85,11.85 0 0 0 -2.07,3.07 9.58,9.58 0 0 0 -0.77,4 8.19,8.19 0 0 0 2.37,6.33 11.38,11.38 0 0 0 6.15,2.78 c 2.68,0.39 5.69,0.75 9,1.06 3.31,0.31 6.4,0.67 9.16,1.06 a 35.21,35.21 0 0 1 8.93,2.55 24.68,24.68 0 0 1 7.33,4.84 22.26,22.26 0 0 1 5,7.27 24,24 0 0 1 1.83,9.58 24.28,24.28 0 0 1 -1.94,10.24 z m 24.88,-7.63 a 13.7,13.7 0 0 0 3.43,7 13.51,13.51 0 0 0 3.73,2.78 11.48,11.48 0 0 0 5.26,1.12 11.86,11.86 0 0 0 5.79,-1.3 10,10 0 0 0 3.67,-3.31 13.72,13.72 0 0 0 1.18,-2.6 12.84,12.84 0 0 0 0.59,-3.08 h 14.54 a 27.81,27.81 0 0 1 -1.42,7.16 20.83,20.83 0 0 1 -3.31,6.2 26.57,26.57 0 0 1 -21,9.7 27,27 0 0 1 -12.65,-2.9 27.51,27.51 0 0 1 -8.75,-6.8 29.43,29.43 0 0 1 -5.09,-10.05 47.49,47.49 0 0 1 0,-24.82 29.43,29.43 0 0 1 5.09,-10 27.37,27.37 0 0 1 8.75,-6.8 27,27 0 0 1 12.65,-2.9 26.57,26.57 0 0 1 21,9.7 20.83,20.83 0 0 1 3.31,6.2 27.81,27.81 0 0 1 1.42,7.16 h -14.56 a 12.84,12.84 0 0 0 -0.59,-3.08 13.72,13.72 0 0 0 -1.18,-2.6 10,10 0 0 0 -3.67,-3.31 13.56,13.56 0 0 0 -11.05,-0.24 12.6,12.6 0 0 0 -3.73,2.72 13.73,13.73 0 0 0 -3.43,7.1 50.55,50.55 0 0 0 -0.71,8.51 49.49,49.49 0 0 0 0.71,8.44 z m 62.9,22.41 h -15 v -61.48 h 15 z m 0.35,-70 H 381 v -15.25 h 15.84 z m 66.33,43.87 h -41.28 a 20.16,20.16 0 0 0 1.12,6.74 13.3,13.3 0 0 0 3.37,5.32 17.11,17.11 0 0 0 3.84,2.66 11.38,11.38 0 0 0 5.26,1.12 18,18 0 0 0 5.27,-0.65 9,9 0 0 0 3.72,-2.31 11.41,11.41 0 0 0 3,-5.2 h 14.18 a 17.14,17.14 0 0 1 -1.83,6 26.85,26.85 0 0 1 -3.37,5.38 22.05,22.05 0 0 1 -9.34,6.62 32.5,32.5 0 0 1 -11.35,2 27.07,27.07 0 0 1 -11,-2.07 29.52,29.52 0 0 1 -8.34,-5.49 29.83,29.83 0 0 1 -7,-10.76 38,38 0 0 1 -2.43,-13.83 41.87,41.87 0 0 1 2.19,-13.78 28.06,28.06 0 0 1 6.68,-10.82 25.65,25.65 0 0 1 8.34,-5.67 28.1,28.1 0 0 1 11.29,-2.13 29.71,29.71 0 0 1 12.77,2.78 23.25,23.25 0 0 1 9.69,8.57 27.11,27.11 0 0 1 4.37,10.35 61.21,61.21 0 0 1 0.93,10.32 v 4.8 z m 62.42,26.13 h -14.79 v -37.72 q 0,-5.43 -2.13,-8.51 -2.13,-3.08 -8,-3.07 a 9.78,9.78 0 0 0 -6.51,2.18 15.43,15.43 0 0 0 -4.21,5.58 22.19,22.19 0 0 0 -1.78,8 c -0.16,3 -0.23,5.85 -0.23,8.45 v 25.07 h -14.74 v -61.46 h 12.41 l 1.07,7.92 a 16.57,16.57 0 0 1 7.74,-7.15 24.51,24.51 0 0 1 10.34,-2.31 21.94,21.94 0 0 1 8.81,1.66 18.86,18.86 0 0 1 6.51,4.55 19.67,19.67 0 0 1 4.07,7 26.55,26.55 0 0 1 1.42,8.81 z m 25.07,-22.41 a 13.2,13.2 0 0 0 7.15,9.82 11.51,11.51 0 0 0 5.26,1.12 11.86,11.86 0 0 0 5.79,-1.3 10,10 0 0 0 3.67,-3.31 13.72,13.72 0 0 0 1.18,-2.6 12.84,12.84 0 0 0 0.59,-3.08 h 14.54 a 27.81,27.81 0 0 1 -1.42,7.16 20.61,20.61 0 0 1 -3.31,6.2 26.57,26.57 0 0 1 -21,9.7 27,27 0 0 1 -12.65,-2.9 27.51,27.51 0 0 1 -8.75,-6.8 29.24,29.24 0 0 1 -5.08,-10.05 47.22,47.22 0 0 1 0,-24.82 29.24,29.24 0 0 1 5.08,-10 27.37,27.37 0 0 1 8.75,-6.8 27,27 0 0 1 12.65,-2.9 26.57,26.57 0 0 1 21,9.7 20.61,20.61 0 0 1 3.31,6.2 27.81,27.81 0 0 1 1.42,7.16 h -14.56 a 12.84,12.84 0 0 0 -0.59,-3.08 13.72,13.72 0 0 0 -1.18,-2.6 10,10 0 0 0 -3.67,-3.31 13.56,13.56 0 0 0 -11,-0.24 12.6,12.6 0 0 0 -3.73,2.72 13.64,13.64 0 0 0 -3.42,7.1 49.53,49.53 0 0 0 -0.71,8.51 48.5,48.5 0 0 0 0.66,8.4 z"
         transform="translate(-209.34,-314.8)"
         id="path20" /><path
         class="cls-1"
         d="m 764.78,469.54 a 62.26,62.26 0 0 0 -0.93,-10.32 27,27 0 0 0 -4.38,-10.35 23.25,23.25 0 0 0 -9.69,-8.57 29.68,29.68 0 0 0 -12.78,-2.78 28.1,28.1 0 0 0 -11.29,2.13 25.76,25.76 0 0 0 -8.34,5.67 28,28 0 0 0 -6.67,10.82 41.87,41.87 0 0 0 -2.19,13.78 38.18,38.18 0 0 0 2.42,13.83 28.14,28.14 0 0 0 15.38,16.25 27.12,27.12 0 0 0 11.06,2.07 32.5,32.5 0 0 0 11.35,-2 22.18,22.18 0 0 0 9.34,-6.62 27.31,27.31 0 0 0 3.37,-5.38 17.14,17.14 0 0 0 1.83,-6 h -14.19 a 11.32,11.32 0 0 1 -3,5.2 8.94,8.94 0 0 1 -3.72,2.31 18,18 0 0 1 -5.26,0.65 11.38,11.38 0 0 1 -5.26,-1.12 17.11,17.11 0 0 1 -3.84,-2.66 13.19,13.19 0 0 1 -3.37,-5.32 20.16,20.16 0 0 1 -1.13,-6.74 h 41.26 v -4.87 z m -41.37,-5.89 a 20.55,20.55 0 0 1 0.83,-5.32 12.72,12.72 0 0 1 2.37,-4.26 12.22,12.22 0 0 1 4.25,-3.43 13.44,13.44 0 0 1 6,-1.3 14.48,14.48 0 0 1 5.5,1 10.65,10.65 0 0 1 3.84,2.6 q 3.67,4 3.79,10.76 z"
         transform="translate(-209.34,-314.8)"
         id="path21" /><path
         class="cls-1"
         d="m 935.08,469.54 a 61.21,61.21 0 0 0 -0.93,-10.32 27.11,27.11 0 0 0 -4.37,-10.35 23.34,23.34 0 0 0 -9.7,-8.57 29.68,29.68 0 0 0 -12.77,-2.78 28.14,28.14 0 0 0 -11.31,2.13 25.61,25.61 0 0 0 -8.33,5.67 28.06,28.06 0 0 0 -6.67,10.82 41.87,41.87 0 0 0 -2.19,13.78 38,38 0 0 0 2.43,13.83 28.09,28.09 0 0 0 15.37,16.25 27.15,27.15 0 0 0 11.06,2.07 32.5,32.5 0 0 0 11.35,-2 22.12,22.12 0 0 0 9.34,-6.62 27.31,27.31 0 0 0 3.37,-5.38 17.14,17.14 0 0 0 1.83,-6 h -14.19 a 11.31,11.31 0 0 1 -3,5.2 9,9 0 0 1 -3.73,2.31 18,18 0 0 1 -5.26,0.65 11.38,11.38 0 0 1 -5.26,-1.12 17.11,17.11 0 0 1 -3.84,-2.66 13.3,13.3 0 0 1 -3.37,-5.32 20.16,20.16 0 0 1 -1.12,-6.74 h 41.31 v -0.07 z m -41.36,-5.89 a 20.13,20.13 0 0 1 0.83,-5.32 12.69,12.69 0 0 1 2.36,-4.26 12.17,12.17 0 0 1 4.26,-3.43 13.38,13.38 0 0 1 6,-1.3 14.42,14.42 0 0 1 5.49,1 10.78,10.78 0 0 1 3.85,2.6 q 3.66,4 3.78,10.76 z"
         transform="translate(-209.34,-314.8)"
         id="path22" /></g></g></svg>
